# Blender v2.79 (sub 0) OBJ File: ''
# www.blender.org
mtllib color_sample.mtl
o Cube.005_Cube.011
v -2.403779 0.002174 2.456039
v -1.819278 0.322174 1.579399
v -2.403779 0.002174 -2.646627
v -1.819278 0.322174 -1.769987
v 0.433358 0.002174 2.456039
v -0.151143 0.322174 1.579399
v 0.433358 0.002174 -2.646627
v -0.151143 0.322174 -1.769987
vt 0.000000 0.000000
vt 1.000000 0.000000
vt 1.000000 1.000000
vt 0.000000 1.000000
vt 0.000000 0.000000
vt 1.000000 0.000000
vt 1.000000 1.000000
vt 0.000000 1.000000
vt 0.000000 0.000000
vt 1.000000 0.000000
vt 1.000000 1.000000
vt 0.000000 1.000000
vt 0.000000 0.000000
vt 1.000000 0.000000
vt 1.000000 1.000000
vt 0.000000 1.000000
vt 1.000000 0.000000
vt 1.000000 1.000000
vt 0.000000 0.000000
vt 0.000000 1.000000
vn -0.4802 0.8771 0.0000
vn 0.0000 0.9394 -0.3429
vn 0.4802 0.8771 0.0000
vn 0.0000 0.9394 0.3429
vn 0.0000 -1.0000 0.0000
vn 0.0000 1.0000 0.0000
usemtl reflection
s off
f 1/1/1 2/2/1 4/3/1 3/4/1
f 3/5/2 4/6/2 8/7/2 7/8/2
f 7/9/3 8/10/3 6/11/3 5/12/3
f 5/13/4 6/14/4 2/15/4 1/16/4
f 3/5/5 7/17/5 5/18/5 1/16/5
f 8/19/6 4/6/6 2/15/6 6/20/6
o Plane.000_Plane.002
v 3.332676 0.000000 3.368506
v -3.332676 0.000000 3.368506
v 3.332676 0.000000 -3.368506
v -3.332676 0.000000 -3.368506
vt 0.000099 0.988928
vt 0.000441 0.000099
vt 0.999901 0.000445
vt 0.999559 0.989273
vn 0.0000 1.0000 0.0000
usemtl floor
s off
f 10/21/7 9/22/7 11/23/7 12/24/7
o Cube.004_Cube.010
v -3.311328 1.342432 -2.431325
v -3.311328 1.982432 -2.431325
v -3.017913 1.342432 -3.000102
v -3.017913 1.982432 -3.000102
v -2.742552 1.342432 -2.137910
v -2.742552 1.982432 -2.137910
v -2.449136 1.342432 -2.706686
v -2.449136 1.982432 -2.706686
vt 0.000000 0.000000
vt 1.000000 0.000000
vt 1.000000 1.000000
vt 0.000000 1.000000
vt 0.000000 0.000000
vt 1.000000 0.000000
vt 1.000000 1.000000
vt 0.000000 1.000000
vt 0.000000 0.000000
vt 1.000000 0.000000
vt 1.000000 1.000000
vt 0.000000 1.000000
vt 0.000000 0.000000
vt 1.000000 0.000000
vt 1.000000 1.000000
vt 0.000000 1.000000
vt 1.000000 0.000000
vt 1.000000 1.000000
vt 0.000000 0.000000
vt 0.000000 1.000000
vn -0.8887 0.0000 -0.4585
vn 0.4585 0.0000 -0.8887
vn 0.8887 0.0000 0.4585
vn -0.4585 0.0000 0.8887
vn 0.0000 -1.0000 -0.0000
vn 0.0000 1.0000 0.0000
usemtl red_case
s off
f 13/25/8 14/26/8 16/27/8 15/28/8
f 15/29/9 16/30/9 20/31/9 19/32/9
f 19/33/10 20/34/10 18/35/10 17/36/10
f 17/37/11 18/38/11 14/39/11 13/40/11
f 15/29/12 19/41/12 17/42/12 13/40/12
f 20/43/13 16/30/13 14/39/13 18/44/13
o Cube.003_Cube.009
v -3.313911 0.015941 -2.320569
v -3.313911 0.655941 -2.320569
v -3.313911 0.015941 -2.960569
v -3.313911 0.655941 -2.960569
v -2.673911 0.015941 -2.320569
v -2.673911 0.655941 -2.320569
v -2.673911 0.015941 -2.960569
v -2.673911 0.655941 -2.960569
vt 0.000000 0.000000
vt 1.000000 0.000000
vt 1.000000 1.000000
vt 0.000000 1.000000
vt 0.000000 0.000000
vt 1.000000 0.000000
vt 1.000000 1.000000
vt 0.000000 1.000000
vt 0.000000 0.000000
vt 1.000000 0.000000
vt 1.000000 1.000000
vt 0.000000 1.000000
vt 0.000000 0.000000
vt 1.000000 0.000000
vt 1.000000 1.000000
vt 0.000000 1.000000
vt 1.000000 0.000000
vt 1.000000 1.000000
vt 0.000000 0.000000
vt 0.000000 1.000000
vn -1.0000 0.0000 0.0000
vn 0.0000 0.0000 -1.0000
vn 1.0000 0.0000 0.0000
vn 0.0000 0.0000 1.0000
vn 0.0000 -1.0000 0.0000
vn 0.0000 1.0000 0.0000
usemtl green_case
s off
f 21/45/14 22/46/14 24/47/14 23/48/14
f 23/49/15 24/50/15 28/51/15 27/52/15
f 27/53/16 28/54/16 26/55/16 25/56/16
f 25/57/17 26/58/17 22/59/17 21/60/17
f 23/49/18 27/61/18 25/62/18 21/60/18
f 28/63/19 24/50/19 22/59/19 26/64/19
o Cube.002_Cube.008
v -3.264401 0.698961 -2.457166
v -3.264401 1.338961 -2.457166
v -3.119426 0.698961 -3.080530
v -3.119426 1.338961 -3.080530
v -2.641038 0.698961 -2.312191
v -2.641038 1.338961 -2.312191
v -2.496063 0.698961 -2.935554
v -2.496063 1.338961 -2.935554
vt 0.000000 0.000000
vt 1.000000 0.000000
vt 1.000000 1.000000
vt 0.000000 1.000000
vt 0.000000 0.000000
vt 1.000000 0.000000
vt 1.000000 1.000000
vt 0.000000 1.000000
vt 0.000000 0.000000
vt 1.000000 0.000000
vt 1.000000 1.000000
vt 0.000000 1.000000
vt 0.000000 0.000000
vt 1.000000 0.000000
vt 1.000000 1.000000
vt 0.000000 1.000000
vt 1.000000 0.000000
vt 1.000000 1.000000
vt 0.000000 0.000000
vt 0.000000 1.000000
vn -0.9740 0.0000 -0.2265
vn 0.2265 0.0000 -0.9740
vn 0.9740 0.0000 0.2265
vn -0.2265 0.0000 0.9740
vn 0.0000 -1.0000 0.0000
vn 0.0000 1.0000 0.0000
usemtl blue_case
s off
f 29/65/20 30/66/20 32/67/20 31/68/20
f 31/69/21 32/70/21 36/71/21 35/72/21
f 35/73/22 36/74/22 34/75/22 33/76/22
f 33/77/23 34/78/23 30/79/23 29/80/23
f 31/69/24 35/81/24 33/82/24 29/80/24
f 36/83/25 32/70/25 30/79/25 34/84/25
o Cube.001_Cube.007
v -3.276214 0.698961 2.890401
v -3.276214 1.338961 2.890401
v -2.899289 0.698961 2.373170
v -2.899289 1.338961 2.373170
v -2.758983 0.698961 3.267326
v -2.758983 1.338961 3.267326
v -2.382058 0.698961 2.750095
v -2.382058 1.338961 2.750095
vt 0.000000 0.000000
vt 1.000000 0.000000
vt 1.000000 1.000000
vt 0.000000 1.000000
vt 0.000000 0.000000
vt 1.000000 0.000000
vt 1.000000 1.000000
vt 0.000000 1.000000
vt 0.000000 0.000000
vt 1.000000 0.000000
vt 1.000000 1.000000
vt 0.000000 1.000000
vt 0.000000 0.000000
vt 1.000000 0.000000
vt 1.000000 1.000000
vt 0.000000 1.000000
vt 1.000000 0.000000
vt 1.000000 1.000000
vt 0.000000 0.000000
vt 0.000000 1.000000
vn -0.8082 0.0000 -0.5889
vn 0.5889 0.0000 -0.8082
vn 0.8082 0.0000 0.5889
vn -0.5889 0.0000 0.8082
vn 0.0000 -1.0000 0.0000
vn 0.0000 1.0000 0.0000
usemtl blue_case
s off
f 37/85/26 38/86/26 40/87/26 39/88/26
f 39/89/27 40/90/27 44/91/27 43/92/27
f 43/93/28 44/94/28 42/95/28 41/96/28
f 41/97/29 42/98/29 38/99/29 37/100/29
f 39/89/30 43/101/30 41/102/30 37/100/30
f 44/103/31 40/90/31 38/99/31 42/104/31
o Cube_Cube.005
v -3.313911 0.015941 3.291094
v -3.313911 0.655941 3.291094
v -3.313911 0.015941 2.651094
v -3.313911 0.655941 2.651094
v -2.673911 0.015941 3.291094
v -2.673911 0.655941 3.291094
v -2.673911 0.015941 2.651094
v -2.673911 0.655941 2.651094
vt 0.000000 0.000000
vt 1.000000 0.000000
vt 1.000000 1.000000
vt 0.000000 1.000000
vt 0.000000 0.000000
vt 1.000000 0.000000
vt 1.000000 1.000000
vt 0.000000 1.000000
vt 0.000000 0.000000
vt 1.000000 0.000000
vt 1.000000 1.000000
vt 0.000000 1.000000
vt 0.000000 0.000000
vt 1.000000 0.000000
vt 1.000000 1.000000
vt 0.000000 1.000000
vt 1.000000 0.000000
vt 1.000000 1.000000
vt 0.000000 0.000000
vt 0.000000 1.000000
vn -1.0000 0.0000 0.0000
vn 0.0000 0.0000 -1.0000
vn 1.0000 0.0000 0.0000
vn 0.0000 0.0000 1.0000
vn 0.0000 -1.0000 0.0000
vn 0.0000 1.0000 0.0000
usemtl red_case
s off
f 45/105/32 46/106/32 48/107/32 47/108/32
f 47/109/33 48/110/33 52/111/33 51/112/33
f 51/113/34 52/114/34 50/115/34 49/116/34
f 49/117/35 50/118/35 46/119/35 45/120/35
f 47/109/36 51/121/36 49/122/36 45/120/36
f 52/123/37 48/110/37 46/119/37 50/124/37
o Plane.001
v -3.500000 0.000000 3.500000
v 3.500000 0.000000 3.500000
v -3.500000 0.000000 -3.500000
v 3.500000 0.000000 -3.500000
v -3.500000 0.000000 -3.368506
v -3.500000 0.000000 3.368506
v 3.500000 0.000000 3.368506
v 3.500000 0.000000 -3.368506
v -3.332676 0.000000 3.500000
v 3.332676 0.000000 3.500000
v 3.332676 0.000000 -3.500000
v -3.332676 0.000000 -3.500000
v 3.332676 0.000000 3.368506
v -3.332676 0.000000 3.368506
v 3.332676 0.000000 -3.368506
v -3.332676 0.000000 -3.368506
v -3.500000 3.261293 3.368506
v -3.500000 3.261293 3.500000
v 3.332676 3.261293 3.500000
v 3.500000 3.261293 3.500000
v 3.500000 3.261293 -3.368506
v 3.500000 3.261293 -3.500000
v -3.332676 3.261293 -3.500000
v -3.500000 3.261293 -3.500000
v -3.500000 3.261293 -3.368506
v 3.500000 3.261293 3.368506
v -3.332676 3.261293 3.368506
v -3.332676 3.261293 -3.368506
v -3.332676 3.261293 3.500000
v 3.332676 3.261293 -3.500000
v 3.332676 3.261293 3.368506
v 3.332676 3.261293 -3.368506
vt 0.000452 0.449819
vt 0.504304 0.000302
vt 0.512190 0.212621
vt 0.235330 0.459304
vt 0.411166 0.464737
vt 0.478427 0.581798
vt 0.483028 0.751659
vt 0.240918 0.465612
vt 0.495681 0.969545
vt 0.484112 0.969748
vt 0.481324 0.760648
vt 0.487796 0.757232
vt 0.000116 0.466466
vt 0.229653 0.466881
vt 0.588822 0.505121
vt 0.759072 0.504246
vt 0.999902 0.493505
vt 0.999883 0.503393
vt 0.770338 0.502978
vt 0.766333 0.496315
vt 0.515874 0.000098
vt 0.518663 0.209204
vt 0.521561 0.388059
vt 0.516959 0.218194
vt 0.764662 0.510556
vt 0.523873 0.211976
vt 0.233658 0.473544
vt 0.476114 0.757877
vt 0.472366 0.969748
vt 0.999548 0.520040
vt 0.000098 0.476354
vt 0.527620 0.000098
vn 0.0000 0.0000 1.0000
vn 1.0000 0.0000 0.0000
vn 0.0000 0.0000 -1.0000
vn 0.0000 1.0000 0.0000
vn -1.0000 0.0000 0.0000
usemtl wall
s off
f 61/125/38 62/126/38 71/127/38 81/128/38
f 66/129/39 68/130/39 80/131/39 79/132/39
f 64/133/40 55/134/40 76/135/40 75/136/40
f 53/137/38 61/125/38 81/128/38 70/138/38
f 68/130/38 67/139/38 84/140/38 80/131/38
f 60/141/39 56/142/39 74/143/39 73/144/39
f 62/126/38 54/145/38 72/146/38 71/127/38
f 65/147/40 66/129/40 79/132/40 83/148/40
f 84/140/41 73/144/41 74/143/41 82/149/41
f 71/127/41 72/146/41 78/150/41 83/148/41
f 83/148/41 78/150/41 73/144/41 84/140/41
f 69/151/41 79/132/41 80/131/41 77/152/41
f 70/138/41 81/128/41 79/132/41 69/151/41
f 81/128/41 71/127/41 83/148/41 79/132/41
f 77/152/41 80/131/41 75/136/41 76/135/41
f 80/131/41 84/140/41 82/149/41 75/136/41
f 55/134/42 57/153/42 77/152/42 76/135/42
f 67/139/42 65/147/42 83/148/42 84/140/42
f 56/142/40 63/154/40 82/149/40 74/143/40
f 57/153/42 58/155/42 69/151/42 77/152/42
f 63/154/40 64/133/40 75/136/40 82/149/40
f 54/145/39 59/156/39 78/150/39 72/146/39
f 59/156/39 60/141/39 73/144/39 78/150/39
f 58/155/42 53/137/42 70/138/42 69/151/42
