# Blender v2.79 (sub 0) OBJ File: ''
# www.blender.org
mtllib crate_land.mtl
o Cube.011_Cube.020
v -1.244910 0.481250 1.977151
v -1.833759 0.481250 1.862016
v -1.718622 0.481250 1.273166
v -1.129773 0.481250 1.388303
v -1.244910 1.081250 1.977152
v -1.129774 1.081250 1.388302
v -1.718622 1.081250 1.273166
v -1.833759 1.081250 1.862015
vt 0.000000 0.000000
vt 1.000000 0.000000
vt 1.000000 1.000000
vt 0.000000 1.000000
vt 1.000000 -0.000000
vt 1.000000 1.000000
vt 0.000000 1.000000
vt -0.000000 0.000000
vt 0.999900 0.000100
vt 0.999900 0.999900
vt 0.000100 0.999900
vt 0.000102 0.000100
vt 0.999898 0.000100
vt 0.999898 0.999899
vt 0.000100 0.999900
vt 0.000100 0.000102
vt 0.999900 0.000100
vt 0.999900 0.999900
vt 0.000102 0.999900
vt 0.000100 0.000100
vt -0.000000 1.000000
vt 1.000000 0.000000
vn 0.0000 -1.0000 -0.0000
vn 0.0000 1.0000 0.0000
vn -0.1919 -0.0000 0.9814
vn -0.9814 -0.0000 -0.1919
vn 0.1919 -0.0000 -0.9814
vn 0.9814 0.0000 0.1919
usemtl Material.002
s 1
f 1/1/1 2/2/1 3/3/1 4/4/1
f 5/5/2 6/6/2 7/7/2 8/8/2
f 1/9/3 5/10/3 8/11/3 2/12/3
f 2/13/4 8/14/4 7/15/4 3/16/4
f 3/17/5 7/18/5 6/19/5 4/20/5
f 5/21/6 1/1/6 4/22/6 6/6/6
o Cube.010_Cube.019
v -1.081385 0.481250 -0.744323
v -1.622103 0.481250 -0.484278
v -1.882147 0.481250 -1.024997
v -1.341429 0.481250 -1.285041
v -1.081385 1.081250 -0.744322
v -1.341429 1.081250 -1.285041
v -1.882148 1.081250 -1.024997
v -1.622104 1.081250 -0.484278
vt 0.000000 0.000000
vt 1.000000 0.000000
vt 1.000000 1.000000
vt 0.000000 1.000000
vt 1.000000 -0.000000
vt 1.000000 1.000000
vt 0.000000 1.000000
vt -0.000000 0.000000
vt 0.999900 0.000100
vt 0.999900 0.999900
vt 0.000100 0.999900
vt 0.000102 0.000100
vt 0.999898 0.000100
vt 0.999898 0.999899
vt 0.000100 0.999900
vt 0.000100 0.000102
vt 0.999900 0.000100
vt 0.999900 0.999900
vt 0.000102 0.999900
vt 0.000100 0.000100
vt -0.000000 1.000000
vt 1.000000 0.000000
vn -0.0000 -1.0000 -0.0000
vn 0.0000 1.0000 0.0000
vn 0.4334 -0.0000 0.9012
vn -0.9012 -0.0000 0.4334
vn -0.4334 -0.0000 -0.9012
vn 0.9012 0.0000 -0.4334
usemtl Material.002
s 1
f 9/23/7 10/24/7 11/25/7 12/26/7
f 13/27/8 14/28/8 15/29/8 16/30/8
f 9/31/9 13/32/9 16/33/9 10/34/9
f 10/35/10 16/36/10 15/37/10 11/38/10
f 11/39/11 15/40/11 14/41/11 12/42/11
f 13/43/12 9/23/12 12/44/12 14/28/12
o Cube.009_Cube.018
v -1.958507 0.481250 -0.656294
v -2.558506 0.481250 -0.656293
v -2.558506 0.481250 -1.256293
v -1.958506 0.481250 -1.256293
v -1.958507 1.081250 -0.656293
v -1.958507 1.081250 -1.256293
v -2.558506 1.081250 -1.256294
v -2.558507 1.081250 -0.656294
vt 0.000000 0.000000
vt 1.000000 0.000000
vt 1.000000 1.000000
vt 0.000000 1.000000
vt 1.000000 -0.000000
vt 1.000000 1.000000
vt 0.000000 1.000000
vt -0.000000 0.000000
vt 0.999900 0.000100
vt 0.999900 0.999900
vt 0.000100 0.999900
vt 0.000102 0.000100
vt 0.999898 0.000100
vt 0.999898 0.999899
vt 0.000100 0.999900
vt 0.000100 0.000102
vt 0.999900 0.000100
vt 0.999900 0.999900
vt 0.000102 0.999900
vt 0.000100 0.000100
vt -0.000000 1.000000
vt 1.000000 0.000000
vn -0.0000 -1.0000 -0.0000
vn 0.0000 1.0000 0.0000
vn 0.0000 -0.0000 1.0000
vn -1.0000 -0.0000 -0.0000
vn 0.0000 -0.0000 -1.0000
vn 1.0000 0.0000 0.0000
usemtl Material.002
s 1
f 17/45/13 18/46/13 19/47/13 20/48/13
f 21/49/14 22/50/14 23/51/14 24/52/14
f 17/53/15 21/54/15 24/55/15 18/56/15
f 18/57/16 24/58/16 23/59/16 19/60/16
f 19/61/17 23/62/17 22/63/17 20/64/17
f 21/65/18 17/45/18 20/66/18 22/50/18
o Cube.008_Cube.017
v -1.958507 1.121790 -1.082671
v -2.558506 1.121790 -1.082670
v -2.558506 1.121790 -1.682670
v -1.958506 1.121790 -1.682670
v -1.958507 1.721790 -1.082670
v -1.958507 1.721790 -1.682670
v -2.558506 1.721790 -1.682671
v -2.558507 1.721790 -1.082671
vt 0.000000 0.000000
vt 1.000000 0.000000
vt 1.000000 1.000000
vt 0.000000 1.000000
vt 1.000000 -0.000000
vt 1.000000 1.000000
vt 0.000000 1.000000
vt -0.000000 0.000000
vt 0.999900 0.000100
vt 0.999900 0.999900
vt 0.000100 0.999900
vt 0.000102 0.000100
vt 0.999898 0.000100
vt 0.999898 0.999899
vt 0.000100 0.999900
vt 0.000100 0.000102
vt 0.999900 0.000100
vt 0.999900 0.999900
vt 0.000102 0.999900
vt 0.000100 0.000100
vt -0.000000 1.000000
vt 1.000000 0.000000
vn -0.0000 -1.0000 -0.0000
vn 0.0000 1.0000 0.0000
vn 0.0000 0.0000 1.0000
vn -1.0000 -0.0000 -0.0000
vn 0.0000 -0.0000 -1.0000
vn 1.0000 0.0000 0.0000
usemtl Material.002
s 1
f 25/67/19 26/68/19 27/69/19 28/70/19
f 29/71/20 30/72/20 31/73/20 32/74/20
f 25/75/21 29/76/21 32/77/21 26/78/21
f 26/79/22 32/80/22 31/81/22 27/82/22
f 27/83/23 31/84/23 30/85/23 28/86/23
f 29/87/24 25/67/24 28/88/24 30/72/24
o Cube.007_Cube.016
v -1.958507 0.481250 -1.352717
v -2.558506 0.481250 -1.352716
v -2.558506 0.481250 -1.952716
v -1.958506 0.481250 -1.952716
v -1.958507 1.081250 -1.352716
v -1.958507 1.081250 -1.952716
v -2.558506 1.081250 -1.952717
v -2.558507 1.081250 -1.352717
vt 0.000000 0.000000
vt 1.000000 0.000000
vt 1.000000 1.000000
vt 0.000000 1.000000
vt 1.000000 -0.000000
vt 1.000000 1.000000
vt 0.000000 1.000000
vt -0.000000 0.000000
vt 0.999900 0.000100
vt 0.999900 0.999900
vt 0.000100 0.999900
vt 0.000102 0.000100
vt 0.999898 0.000100
vt 0.999898 0.999899
vt 0.000100 0.999900
vt 0.000100 0.000102
vt 0.999900 0.000100
vt 0.999900 0.999900
vt 0.000102 0.999900
vt 0.000100 0.000100
vt -0.000000 1.000000
vt 1.000000 0.000000
vn -0.0000 -1.0000 -0.0000
vn 0.0000 1.0000 0.0000
vn 0.0000 0.0000 1.0000
vn -1.0000 -0.0000 -0.0000
vn 0.0000 -0.0000 -1.0000
vn 1.0000 0.0000 0.0000
usemtl Material.002
s 1
f 33/89/25 34/90/25 35/91/25 36/92/25
f 37/93/26 38/94/26 39/95/26 40/96/26
f 33/97/27 37/98/27 40/99/27 34/100/27
f 34/101/28 40/102/28 39/103/28 35/104/28
f 35/105/29 39/106/29 38/107/29 36/108/29
f 37/109/30 33/89/30 36/110/30 38/94/30
o Cube.005_Cube.015
v -1.958507 0.481250 0.044723
v -2.558506 0.481250 0.044724
v -2.558506 0.481250 -0.555276
v -1.958506 0.481250 -0.555276
v -1.958507 1.081250 0.044724
v -1.958507 1.081250 -0.555276
v -2.558506 1.081250 -0.555277
v -2.558507 1.081250 0.044723
vt 0.000000 0.000000
vt 1.000000 0.000000
vt 1.000000 1.000000
vt 0.000000 1.000000
vt 1.000000 -0.000000
vt 1.000000 1.000000
vt 0.000000 1.000000
vt -0.000000 0.000000
vt 0.999900 0.000100
vt 0.999900 0.999900
vt 0.000100 0.999900
vt 0.000102 0.000100
vt 0.999898 0.000100
vt 0.999898 0.999899
vt 0.000100 0.999900
vt 0.000100 0.000102
vt 0.999900 0.000100
vt 0.999900 0.999900
vt 0.000102 0.999900
vt 0.000100 0.000100
vt -0.000000 1.000000
vt 1.000000 0.000000
vn -0.0000 -1.0000 -0.0000
vn 0.0000 1.0000 0.0000
vn 0.0000 -0.0000 1.0000
vn -1.0000 -0.0000 -0.0000
vn 0.0000 -0.0000 -1.0000
vn 1.0000 0.0000 0.0000
usemtl Material.002
s 1
f 41/111/31 42/112/31 43/113/31 44/114/31
f 45/115/32 46/116/32 47/117/32 48/118/32
f 41/119/33 45/120/33 48/121/33 42/122/33
f 42/123/34 48/124/34 47/125/34 43/126/34
f 43/127/35 47/128/35 46/129/35 44/130/35
f 45/131/36 41/111/36 44/132/36 46/116/36
o Cube.004_Cube.014
v -1.958507 0.481250 1.660163
v -2.558506 0.481250 1.660164
v -2.558506 0.481250 1.060164
v -1.958506 0.481250 1.060164
v -1.958507 1.081250 1.660164
v -1.958507 1.081250 1.060164
v -2.558506 1.081250 1.060163
v -2.558507 1.081250 1.660163
vt 0.000000 0.000000
vt 1.000000 0.000000
vt 1.000000 1.000000
vt 0.000000 1.000000
vt 1.000000 -0.000000
vt 1.000000 1.000000
vt 0.000000 1.000000
vt -0.000000 0.000000
vt 0.999900 0.000100
vt 0.999900 0.999900
vt 0.000100 0.999900
vt 0.000102 0.000100
vt 0.999898 0.000100
vt 0.999898 0.999899
vt 0.000100 0.999900
vt 0.000100 0.000102
vt 0.999900 0.000100
vt 0.999900 0.999900
vt 0.000102 0.999900
vt 0.000100 0.000100
vt -0.000000 1.000000
vt 1.000000 0.000000
vn -0.0000 -1.0000 -0.0000
vn 0.0000 1.0000 0.0000
vn 0.0000 0.0000 1.0000
vn -1.0000 -0.0000 -0.0000
vn 0.0000 -0.0000 -1.0000
vn 1.0000 0.0000 0.0000
usemtl Material.002
s 1
f 49/133/37 50/134/37 51/135/37 52/136/37
f 53/137/38 54/138/38 55/139/38 56/140/38
f 49/141/39 53/142/39 56/143/39 50/144/39
f 50/145/40 56/146/40 55/147/40 51/148/40
f 51/149/41 55/150/41 54/151/41 52/152/41
f 53/153/42 49/133/42 52/154/42 54/138/42
o Cube.003_Cube.013
v 0.733926 1.093361 2.070577
v 0.133927 1.093361 2.070578
v 0.133927 1.093361 1.470577
v 0.733927 1.093361 1.470577
v 0.733926 1.693361 2.070578
v 0.733926 1.693361 1.470578
v 0.133927 1.693361 1.470577
v 0.133926 1.693361 2.070577
vt 0.000000 0.000000
vt 1.000000 0.000000
vt 1.000000 1.000000
vt 0.000000 1.000000
vt 1.000000 -0.000000
vt 1.000000 1.000000
vt 0.000000 1.000000
vt -0.000000 0.000000
vt 0.999900 0.000100
vt 0.999900 0.999900
vt 0.000100 0.999900
vt 0.000102 0.000100
vt 0.999898 0.000100
vt 0.999898 0.999899
vt 0.000100 0.999900
vt 0.000100 0.000102
vt 0.999900 0.000100
vt 0.999900 0.999900
vt 0.000102 0.999900
vt 0.000100 0.000100
vt -0.000000 1.000000
vt 1.000000 0.000000
vn -0.0000 -1.0000 0.0000
vn 0.0000 1.0000 0.0000
vn 0.0000 0.0000 1.0000
vn -1.0000 -0.0000 -0.0000
vn 0.0000 -0.0000 -1.0000
vn 1.0000 0.0000 0.0000
usemtl Material.002
s 1
f 57/155/43 58/156/43 59/157/43 60/158/43
f 61/159/44 62/160/44 63/161/44 64/162/44
f 57/163/45 61/164/45 64/165/45 58/166/45
f 58/167/46 64/168/46 63/169/46 59/170/46
f 59/171/47 63/172/47 62/173/47 60/174/47
f 61/175/48 57/155/48 60/176/48 62/160/48
o Cube.002_Cube.012
v 0.733926 0.481250 2.319655
v 0.133927 0.481250 2.319656
v 0.133927 0.481250 1.719656
v 0.733927 0.481250 1.719656
v 0.733926 1.081250 2.319656
v 0.733926 1.081250 1.719656
v 0.133927 1.081250 1.719655
v 0.133926 1.081250 2.319655
vt 0.000000 0.000000
vt 1.000000 0.000000
vt 1.000000 1.000000
vt 0.000000 1.000000
vt 1.000000 -0.000000
vt 1.000000 1.000000
vt 0.000000 1.000000
vt -0.000000 0.000000
vt 0.999900 0.000100
vt 0.999900 0.999900
vt 0.000100 0.999900
vt 0.000102 0.000100
vt 0.999898 0.000100
vt 0.999898 0.999899
vt 0.000100 0.999900
vt 0.000100 0.000102
vt 0.999900 0.000100
vt 0.999900 0.999900
vt 0.000102 0.999900
vt 0.000100 0.000100
vt -0.000000 1.000000
vt 1.000000 0.000000
vn -0.0000 -1.0000 -0.0000
vn 0.0000 1.0000 0.0000
vn 0.0000 0.0000 1.0000
vn -1.0000 -0.0000 -0.0000
vn 0.0000 -0.0000 -1.0000
vn 1.0000 0.0000 0.0000
usemtl Material.002
s 1
f 65/177/49 66/178/49 67/179/49 68/180/49
f 69/181/50 70/182/50 71/183/50 72/184/50
f 65/185/51 69/186/51 72/187/51 66/188/51
f 66/189/52 72/190/52 71/191/52 67/192/52
f 67/193/53 71/194/53 70/195/53 68/196/53
f 69/197/54 65/177/54 68/198/54 70/182/54
o Cube.001_Cube.011
v 0.733926 0.481250 1.660163
v 0.133927 0.481250 1.660164
v 0.133927 0.481250 1.060164
v 0.733927 0.481250 1.060164
v 0.733926 1.081250 1.660164
v 0.733926 1.081250 1.060164
v 0.133927 1.081250 1.060163
v 0.133926 1.081250 1.660163
vt 0.000000 0.000000
vt 1.000000 0.000000
vt 1.000000 1.000000
vt 0.000000 1.000000
vt 1.000000 -0.000000
vt 1.000000 1.000000
vt 0.000000 1.000000
vt -0.000000 0.000000
vt 0.999900 0.000100
vt 0.999900 0.999900
vt 0.000100 0.999900
vt 0.000102 0.000100
vt 0.999898 0.000100
vt 0.999898 0.999899
vt 0.000100 0.999900
vt 0.000100 0.000102
vt 0.999900 0.000100
vt 0.999900 0.999900
vt 0.000102 0.999900
vt 0.000100 0.000100
vt -0.000000 1.000000
vt 1.000000 0.000000
vn -0.0000 -1.0000 -0.0000
vn 0.0000 1.0000 0.0000
vn 0.0000 0.0000 1.0000
vn -1.0000 -0.0000 -0.0000
vn 0.0000 -0.0000 -1.0000
vn 1.0000 0.0000 0.0000
usemtl Material.002
s 1
f 73/199/55 74/200/55 75/201/55 76/202/55
f 77/203/56 78/204/56 79/205/56 80/206/56
f 73/207/57 77/208/57 80/209/57 74/210/57
f 74/211/58 80/212/58 79/213/58 75/214/58
f 75/215/59 79/216/59 78/217/59 76/218/59
f 77/219/60 73/199/60 76/220/60 78/204/60
o Cube.000_Cube.010
v 1.226787 1.085502 -1.367130
v 0.821925 1.085502 -0.924315
v 0.379110 1.085502 -1.329179
v 0.783973 1.085502 -1.771994
v 1.226788 1.685502 -1.367129
v 0.783973 1.685502 -1.771993
v 0.379109 1.685502 -1.329179
v 0.821924 1.685502 -0.924315
vt 0.000000 0.000000
vt 1.000000 0.000000
vt 1.000000 1.000000
vt 0.000000 1.000000
vt 1.000000 -0.000000
vt 1.000000 1.000000
vt 0.000000 1.000000
vt -0.000000 0.000000
vt 0.999900 0.000100
vt 0.999900 0.999900
vt 0.000100 0.999900
vt 0.000102 0.000100
vt 0.999898 0.000100
vt 0.999898 0.999899
vt 0.000100 0.999900
vt 0.000100 0.000102
vt 0.999900 0.000100
vt 0.999900 0.999900
vt 0.000102 0.999900
vt 0.000100 0.000100
vt -0.000000 1.000000
vt 1.000000 0.000000
vn -0.0000 -1.0000 -0.0000
vn 0.0000 1.0000 0.0000
vn 0.7380 -0.0000 0.6748
vn -0.6748 -0.0000 0.7380
vn -0.7380 -0.0000 -0.6748
vn 0.6748 0.0000 -0.7380
usemtl Material.002
s 1
f 81/221/61 82/222/61 83/223/61 84/224/61
f 85/225/62 86/226/62 87/227/62 88/228/62
f 81/229/63 85/230/63 88/231/63 82/232/63
f 82/233/64 88/234/64 87/235/64 83/236/64
f 83/237/65 87/238/65 86/239/65 84/240/65
f 85/241/66 81/221/66 84/242/66 86/226/66
o Plane
v -2.850320 0.478113 -2.357596
v -2.850319 0.478113 2.442404
v 1.949681 0.478113 2.442403
v 1.949680 0.478113 -2.357597
vt -2.149500 -2.149500
vt 3.149500 -2.149500
vt 3.149500 3.149500
vt -2.149500 3.149500
vn 0.0000 1.0000 0.0000
usemtl Material.001
s 1
f 89/243/67 90/244/67 91/245/67 92/246/67
o Cube.006
v 1.102948 0.481250 -1.048155
v 0.502949 0.481250 -1.048154
v 0.502949 0.481250 -1.648154
v 1.102949 0.481250 -1.648154
v 1.102948 1.081250 -1.048154
v 1.102948 1.081250 -1.648154
v 0.502949 1.081250 -1.648155
v 0.502948 1.081250 -1.048155
vt 0.000000 0.000000
vt 1.000000 0.000000
vt 1.000000 1.000000
vt 0.000000 1.000000
vt 1.000000 -0.000000
vt 1.000000 1.000000
vt 0.000000 1.000000
vt -0.000000 0.000000
vt 0.999900 0.000100
vt 0.999900 0.999900
vt 0.000100 0.999900
vt 0.000102 0.000100
vt 0.999898 0.000100
vt 0.999898 0.999899
vt 0.000100 0.999900
vt 0.000100 0.000102
vt 0.999900 0.000100
vt 0.999900 0.999900
vt 0.000102 0.999900
vt 0.000100 0.000100
vt -0.000000 1.000000
vt 1.000000 0.000000
vn -0.0000 -1.0000 -0.0000
vn 0.0000 1.0000 0.0000
vn 0.0000 0.0000 1.0000
vn -1.0000 -0.0000 -0.0000
vn 0.0000 -0.0000 -1.0000
vn 1.0000 0.0000 0.0000
usemtl Material.002
s 1
f 93/247/68 94/248/68 95/249/68 96/250/68
f 97/251/69 98/252/69 99/253/69 100/254/69
f 93/255/70 97/256/70 100/257/70 94/258/70
f 94/259/71 100/260/71 99/261/71 95/262/71
f 95/263/72 99/264/72 98/265/72 96/266/72
f 97/267/73 93/247/73 96/268/73 98/252/73
