# Blender v2.79 (sub 0) OBJ File: 'untitled.blend'
# www.blender.org
mtllib island.mtl
o Plane_Plane.004
v -165.430862 -1.544155 165.430862
v 165.430862 -1.544155 165.430862
v -165.430862 -1.544155 -165.430862
v 165.430862 -1.544155 -165.430862
vt -3.721284 -3.721284
vt 4.721285 -3.721284
vt 4.721285 4.721285
vt -3.721284 4.721285
vn 0.0000 1.0000 0.0000
usemtl water
s off
f 1/1/1 2/2/1 4/3/1 3/4/1
o Cube.002_Cube.023
v -76.489304 -8.193717 -47.148468
v -71.505501 0.418584 -50.982971
v -81.476761 -10.668121 -76.028152
v -71.233383 -1.728798 -73.672165
v -44.247963 -7.423658 -45.744255
v -52.434887 1.699755 -49.245083
v -39.782257 -9.550013 -75.774445
v -47.347672 -0.831195 -71.109520
v -75.035583 -1.936747 -48.603741
v -74.710876 -4.499157 -75.678123
v -43.471733 -3.287625 -72.343590
v -49.427200 0.347977 -46.763260
v -85.078232 -10.687719 -61.542461
v -74.927536 -0.700214 -62.365974
v -33.637287 -6.116795 -60.248981
v -47.560608 1.534071 -60.293175
v -43.159100 -0.528569 -59.805676
v -79.442444 -4.000816 -62.107742
v -58.253067 -8.249604 -81.536156
v -58.791878 -0.130205 -76.042610
v -58.911701 -6.844934 -42.427086
v -60.522335 2.163461 -48.056923
v -60.362019 0.639908 -44.567654
v -58.713928 -2.527704 -79.111145
v -59.460243 1.793286 -62.239277
v -57.926701 -12.012564 -61.086304
vt 0.192611 1.115309
vt 0.382350 0.909883
vt 0.688226 1.152638
vt 0.642623 1.403976
vt 1.300916 1.406089
vt 0.976249 1.043903
vt 1.043175 0.748807
vt 1.307176 0.725295
vt 0.989717 0.267769
vt 0.796761 0.469279
vt 0.501712 0.234571
vt 0.510635 -0.034829
vt -0.191366 -0.000624
vt 0.205297 0.318502
vt 0.113448 0.620770
vt -0.139084 0.689459
vt 2.625548 -1.350057
vt 1.632229 -0.446089
vt 1.273299 -0.992126
vt 0.697246 -1.680179
vt 0.588973 0.688346
vt -1.645929 0.941228
vt -0.824661 1.127049
vt 2.625549 0.935856
vt 2.004035 0.327000
vt -0.291039 1.631809
vt 0.273966 1.791117
vt 0.769134 2.680179
vt -1.383201 2.609868
vn -0.5543 0.7979 -0.2367
vn 0.2966 0.7573 -0.5818
vn 0.3708 0.9193 0.1318
vn -0.2610 0.8675 0.4235
vn 0.1436 -0.9760 0.1638
vn -0.1532 0.9872 -0.0434
vn -0.2816 0.2430 0.9283
vn 0.6121 0.6902 0.3859
vn 0.3278 0.5040 -0.7991
vn -0.7038 0.6753 -0.2206
vn -0.8163 0.4939 0.2996
vn 0.5864 0.7521 -0.3009
vn -0.1548 0.9777 -0.1418
vn 0.1112 -0.9934 -0.0291
vn 0.4568 0.8685 -0.1925
vn -0.5583 0.8267 0.0699
vn 0.0109 -0.9942 -0.1066
vn 0.0898 0.9817 -0.1678
vn -0.2451 0.3417 -0.9073
vn 0.2110 0.2853 0.9349
vn 0.0366 0.9992 -0.0126
vn -0.0263 -0.9725 0.2315
vn 0.1050 0.9166 0.3857
vn -0.2210 0.7534 -0.6193
usemtl island
s off
f 22/5/2 18/6/2 8/7/2 14/8/2
f 28/9/3 24/10/3 12/11/3 15/12/3
f 21/13/4 20/14/4 10/15/4 16/16/4
f 27/17/5 26/18/5 6/19/5 13/20/5
f 30/21/6 19/22/6 9/23/6 25/24/6
f 29/25/7 18/6/7 6/19/7 26/18/7
f 25/26/8 27/17/8 13/20/8 5/27/8
f 19/22/9 21/13/9 16/16/9 9/23/9
f 23/28/10 28/9/10 15/12/10 11/29/10
f 17/30/11 22/5/11 14/8/11 7/31/11
f 5/27/12 13/20/12 22/5/12 17/30/12
f 11/29/13 15/12/13 21/13/13 19/22/13
f 24/10/14 8/7/14 18/6/14 29/25/14
f 23/28/15 11/29/15 19/22/15 30/21/15
f 15/12/16 12/11/16 20/14/16 21/13/16
f 13/20/17 6/19/17 18/6/17 22/5/17
f 7/31/18 23/32/18 30/33/18 17/30/18
f 12/11/19 24/10/19 29/25/19 20/14/19
f 7/31/20 14/8/20 28/9/20 23/32/20
f 9/23/21 16/16/21 27/17/21 25/24/21
f 20/14/22 29/25/22 26/18/22 10/15/22
f 17/30/23 30/33/23 25/26/23 5/27/23
f 16/16/24 10/15/24 26/18/24 27/17/24
f 14/8/25 8/7/25 24/10/25 28/9/25
o Cube.001_Cube.022
v 75.999496 -7.640685 -33.404213
v 86.088287 1.865873 -36.861549
v 75.866852 -7.619612 -92.144852
v 86.486809 2.624449 -80.007553
v 118.117485 -10.387953 -39.170830
v 113.427383 1.450703 -42.260696
v 118.073746 -6.904186 -100.196541
v 113.427383 2.375833 -85.129303
v 80.426109 -0.760938 -33.920536
v 82.808533 -0.581977 -87.029747
v 116.535835 0.055659 -90.754227
v 116.535835 -0.759942 -39.652359
v 60.082462 -10.228526 -59.381958
v 81.949768 3.407220 -55.397842
v 127.021088 -9.317153 -66.645035
v 117.152397 2.635485 -63.557262
v 121.201569 -0.106659 -65.214119
v 75.671799 -0.532969 -57.902763
v 100.049370 -5.993171 -103.598228
v 100.569641 2.792678 -87.244606
v 100.029198 -9.061084 -29.459072
v 100.654213 1.693053 -34.853584
v 100.341339 -0.801188 -30.367680
v 100.345932 0.428399 -95.737091
v 100.763527 4.373574 -55.942314
v 99.836685 -10.491853 -61.105007
vt 0.192611 1.115309
vt 0.382350 0.909883
vt 0.688226 1.152638
vt 0.642623 1.403976
vt 1.300916 1.406089
vt 0.976249 1.043903
vt 1.043175 0.748807
vt 1.307176 0.725295
vt 0.989717 0.267769
vt 0.796761 0.469279
vt 0.501712 0.234571
vt 0.510635 -0.034829
vt -0.191366 -0.000624
vt 0.205297 0.318502
vt 0.113448 0.620770
vt -0.139084 0.689459
vt 2.625548 -1.350057
vt 1.632229 -0.446089
vt 1.273299 -0.992126
vt 0.697246 -1.680179
vt 0.588973 0.688346
vt -1.645929 0.941228
vt -0.824661 1.127049
vt 2.625549 0.935856
vt 2.004035 0.327000
vt -0.291039 1.631809
vt 0.273966 1.791117
vt 0.769134 2.680179
vt -1.383201 2.609868
vn -0.4993 0.8578 -0.1217
vn 0.0980 0.9504 -0.2953
vn 0.5522 0.8233 0.1312
vn -0.0789 0.8492 0.5221
vn -0.0014 -1.0000 0.0059
vn -0.0284 0.9937 0.1088
vn -0.1619 0.1426 0.9765
vn 0.9069 0.3440 0.2432
vn 0.1751 0.7849 -0.5944
vn -0.5545 0.8143 -0.1717
vn -0.6279 0.7452 0.2246
vn 0.8473 0.5021 -0.1733
vn -0.0452 0.9979 -0.0457
vn 0.0015 -0.9959 -0.0907
vn 0.5104 0.8549 -0.0927
vn -0.4737 0.8702 0.1353
vn 0.0019 -0.9956 -0.0936
vn 0.0660 0.9970 -0.0396
vn -0.3295 0.7411 -0.5849
vn 0.4851 0.1019 0.8685
vn 0.1190 0.9878 0.1008
vn -0.0290 -0.9966 0.0776
vn 0.2689 0.8481 0.4565
vn -0.1820 0.9391 -0.2914
usemtl island
s off
f 48/34/26 44/35/26 34/36/26 40/37/26
f 54/38/27 50/39/27 38/40/27 41/41/27
f 47/42/28 46/43/28 36/44/28 42/45/28
f 53/46/29 52/47/29 32/48/29 39/49/29
f 56/50/30 45/51/30 35/52/30 51/53/30
f 55/54/31 44/35/31 32/48/31 52/47/31
f 51/55/32 53/46/32 39/49/32 31/56/32
f 45/51/33 47/42/33 42/45/33 35/52/33
f 49/57/34 54/38/34 41/41/34 37/58/34
f 43/59/35 48/34/35 40/37/35 33/60/35
f 31/56/36 39/49/36 48/34/36 43/59/36
f 37/58/37 41/41/37 47/42/37 45/51/37
f 50/39/38 34/36/38 44/35/38 55/54/38
f 49/57/39 37/58/39 45/51/39 56/50/39
f 41/41/40 38/40/40 46/43/40 47/42/40
f 39/49/41 32/48/41 44/35/41 48/34/41
f 33/60/42 49/61/42 56/62/42 43/59/42
f 38/40/43 50/39/43 55/54/43 46/43/43
f 33/60/44 40/37/44 54/38/44 49/61/44
f 35/52/45 42/45/45 53/46/45 51/53/45
f 46/43/46 55/54/46 52/47/46 36/44/46
f 43/59/47 56/62/47 51/55/47 31/56/47
f 42/45/48 36/44/48 52/47/48 53/46/48
f 40/37/49 34/36/49 50/39/49 54/38/49
o Cube.000_Cube.021
v -74.816505 -4.480866 102.372559
v -69.470963 4.623799 101.894615
v -79.328384 -4.176387 75.937645
v -69.450249 5.352106 81.658333
v -40.029030 -6.751354 100.905975
v -44.391521 4.260348 99.449623
v -40.069717 -3.510935 72.142632
v -44.391521 5.120856 79.244293
v -73.108276 2.074708 102.816185
v -72.871582 2.369655 78.348557
v -41.500198 2.962751 76.593094
v -41.500198 2.204122 100.679008
v -83.172668 -4.736343 89.500008
v -73.670364 6.080199 93.257668
v -31.747358 -5.755352 87.956512
v -40.926704 5.362371 89.411873
v -37.160370 2.811771 88.630951
v -78.195412 2.641639 91.849030
v -56.835052 -2.663557 70.539307
v -56.351124 5.508584 78.247284
v -56.853817 -5.517169 105.483429
v -56.272457 4.485770 102.940826
v -56.563480 2.165756 105.055176
v -56.559212 3.309454 74.244507
v -56.170784 6.979051 93.001045
v -57.032887 -6.847997 90.567703
vt 0.192611 1.115309
vt 0.382350 0.909883
vt 0.688226 1.152638
vt 0.642623 1.403976
vt 1.300916 1.406089
vt 0.976249 1.043903
vt 1.043175 0.748807
vt 1.307176 0.725295
vt 0.989717 0.267769
vt 0.796761 0.469279
vt 0.501712 0.234571
vt 0.510635 -0.034829
vt -0.191366 -0.000624
vt 0.205297 0.318502
vt 0.113448 0.620770
vt -0.139084 0.689459
vt 2.625548 -1.350057
vt 1.632229 -0.446089
vt 1.273299 -0.992126
vt 0.697246 -1.680179
vt 0.588973 0.688346
vt -1.645929 0.941228
vt -0.824661 1.127049
vt 2.625549 0.935856
vt 2.004035 0.327000
vt -0.291039 1.631809
vt 0.273966 1.791117
vt 0.769134 2.680179
vt -1.383201 2.609868
vn -0.5243 0.8193 -0.2320
vn 0.0876 0.8492 -0.5208
vn 0.5390 0.8035 0.2527
vn -0.0887 0.5776 0.8115
vn -0.0014 -0.9999 0.0116
vn -0.0297 0.9764 0.2141
vn -0.1526 0.0204 0.9881
vn 0.8380 0.3179 0.4435
vn 0.1231 0.5519 -0.8248
vn -0.7107 0.6635 -0.2337
vn -0.8284 0.3031 0.4711
vn 0.8127 0.4816 -0.3281
vn -0.0451 0.9949 -0.0899
vn 0.0015 -0.9842 -0.1769
vn 0.5042 0.8445 -0.1806
vn -0.5682 0.7465 0.3462
vn -0.0249 -0.9894 -0.1427
vn 0.0659 0.9948 -0.0780
vn -0.2336 0.5253 -0.8182
vn 0.2719 0.0571 0.9606
vn 0.1173 0.9735 0.1961
vn -0.0786 -0.9936 0.0809
vn 0.2124 0.6698 0.7115
vn -0.1630 0.8414 -0.5153
usemtl island
s off
f 74/63/50 70/64/50 60/65/50 66/66/50
f 80/67/51 76/68/51 64/69/51 67/70/51
f 73/71/52 72/72/52 62/73/52 68/74/52
f 79/75/53 78/76/53 58/77/53 65/78/53
f 82/79/54 71/80/54 61/81/54 77/82/54
f 81/83/55 70/64/55 58/77/55 78/76/55
f 77/84/56 79/75/56 65/78/56 57/85/56
f 71/80/57 73/71/57 68/74/57 61/81/57
f 75/86/58 80/67/58 67/70/58 63/87/58
f 69/88/59 74/63/59 66/66/59 59/89/59
f 57/85/60 65/78/60 74/63/60 69/88/60
f 63/87/61 67/70/61 73/71/61 71/80/61
f 76/68/62 60/65/62 70/64/62 81/83/62
f 75/86/63 63/87/63 71/80/63 82/79/63
f 67/70/64 64/69/64 72/72/64 73/71/64
f 65/78/65 58/77/65 70/64/65 74/63/65
f 59/89/66 75/90/66 82/91/66 69/88/66
f 64/69/67 76/68/67 81/83/67 72/72/67
f 59/89/68 66/66/68 80/67/68 75/90/68
f 61/81/69 68/74/69 79/75/69 77/82/69
f 72/72/70 81/83/70 78/76/70 62/73/70
f 69/88/71 82/91/71 77/84/71 57/85/71
f 68/74/72 62/73/72 78/76/72 79/75/72
f 66/66/73 60/65/73 76/68/73 80/67/73
o Cube.008_Cube.020
v -9.709534 -2.423016 9.590405
v -6.634576 1.794419 7.308815
v -12.393150 -1.950502 -11.937874
v -6.634576 1.794419 -9.656284
v 8.711344 -3.310853 9.590405
v 6.126265 2.416580 7.308815
v 8.696901 -1.493704 -14.520863
v 6.126265 2.416580 -9.656284
v -8.572594 0.715231 8.937956
v -8.572594 0.715231 -11.306017
v 7.819027 1.514413 -11.285427
v 7.819027 1.514413 8.937956
v -14.217541 -2.433324 -1.173735
v -8.438723 2.001473 -1.173735
v 13.246120 -2.619306 -1.173735
v 8.003891 2.803141 -1.173735
v 10.185053 1.640679 -1.173735
v -10.935902 0.610916 -1.173735
v -0.513537 -1.657086 -16.337254
v -0.254155 2.105500 -11.589869
v -0.499095 -3.009592 12.944689
v -0.254155 2.105500 9.242397
v -0.376783 1.114822 11.758444
v -0.376782 1.114822 -14.105915
v -0.217416 2.402307 -1.173735
v -0.551635 -4.860374 -1.173735
vt 0.192611 1.115309
vt 0.382350 0.909883
vt 0.688226 1.152638
vt 0.642623 1.403976
vt 1.300916 1.406089
vt 0.976249 1.043903
vt 1.043175 0.748807
vt 1.307176 0.725295
vt 0.989717 0.267769
vt 0.796761 0.469279
vt 0.501712 0.234571
vt 0.510635 -0.034829
vt -0.191366 -0.000624
vt 0.205297 0.318502
vt 0.113448 0.620770
vt -0.139084 0.689459
vt 2.625548 -1.350057
vt 1.632229 -0.446089
vt 1.273299 -0.992126
vt 0.697246 -1.680179
vt 0.588973 0.688346
vt -1.645929 0.941228
vt -0.824661 1.127049
vt 2.625549 0.935856
vt 2.004035 0.327000
vt -0.291039 1.631809
vt 0.273966 1.791117
vt 0.769134 2.680179
vt -1.383201 2.609868
vn -0.4533 0.8850 -0.1064
vn 0.0818 0.9179 -0.3882
vn 0.4264 0.8963 0.1220
vn -0.1662 0.9128 0.3732
vn 0.0930 -0.9937 0.0630
vn -0.0528 0.9981 0.0316
vn -0.3178 0.2841 0.9046
vn 0.8660 0.3985 0.3019
vn 0.1657 0.6888 -0.7058
vn -0.6178 0.7797 -0.1019
vn -0.7746 0.5802 0.2518
vn 0.8144 0.5381 -0.2172
vn -0.0528 0.9981 -0.0316
vn 0.1155 -0.9792 -0.1669
vn 0.4264 0.8963 -0.1220
vn -0.4536 0.8848 0.1065
vn -0.1075 -0.9832 -0.1475
vn -0.0445 0.9985 -0.0316
vn -0.2879 0.6018 -0.7449
vn 0.3253 0.2171 0.9204
vn -0.0445 0.9985 0.0316
vn -0.1444 -0.9844 0.1001
vn 0.0818 0.9179 0.3882
vn -0.1653 0.9134 -0.3720
usemtl island
s off
f 100/92/74 96/93/74 86/94/74 92/95/74
f 106/96/75 102/97/75 90/98/75 93/99/75
f 99/100/76 98/101/76 88/102/76 94/103/76
f 105/104/77 104/105/77 84/106/77 91/107/77
f 108/108/78 97/109/78 87/110/78 103/111/78
f 107/112/79 96/93/79 84/106/79 104/105/79
f 103/113/80 105/104/80 91/107/80 83/114/80
f 97/109/81 99/100/81 94/103/81 87/110/81
f 101/115/82 106/96/82 93/99/82 89/116/82
f 95/117/83 100/92/83 92/95/83 85/118/83
f 83/114/84 91/107/84 100/92/84 95/117/84
f 89/116/85 93/99/85 99/100/85 97/109/85
f 102/97/86 86/94/86 96/93/86 107/112/86
f 101/115/87 89/116/87 97/109/87 108/108/87
f 93/99/88 90/98/88 98/101/88 99/100/88
f 91/107/89 84/106/89 96/93/89 100/92/89
f 85/118/90 101/119/90 108/120/90 95/117/90
f 90/98/91 102/97/91 107/112/91 98/101/91
f 85/118/92 92/95/92 106/96/92 101/119/92
f 87/110/93 94/103/93 105/104/93 103/111/93
f 98/101/94 107/112/94 104/105/94 88/102/94
f 95/117/95 108/120/95 103/113/95 83/114/95
f 94/103/96 88/102/96 104/105/96 105/104/96
f 92/95/97 86/94/97 102/97/97 106/96/97
