# Blender v2.79 (sub 0) OBJ File: ''
# www.blender.org
mtllib sss_crate.mtl
o Cube.004_Cube.014
v -1.958507 0.481250 1.660163
v -2.558506 0.481250 1.660164
v -2.558506 0.481250 1.060164
v -1.958506 0.481250 1.060164
v -1.958507 1.081250 1.660164
v -1.958507 1.081250 1.060164
v -2.558506 1.081250 1.060163
v -2.558507 1.081250 1.660163
vt 0.000000 0.000000
vt 1.000000 1.000000
vt 0.000000 1.000000
vt 1.000000 1.000000
vt -0.000000 0.000000
vt 1.000000 -0.000000
vt 0.999900 0.999900
vt 0.000102 0.000100
vt 0.999900 0.000100
vt 0.999898 0.999899
vt 0.000100 0.000102
vt 0.999898 0.000100
vt 0.999900 0.000100
vt 0.000102 0.999900
vt 0.000100 0.000100
vt -0.000000 1.000000
vt 1.000000 0.000000
vt 0.000000 1.000000
vt 0.000100 0.999900
vt 0.000100 0.999900
vt 0.999900 0.999900
vt 1.000000 0.000000
vn -0.0000 -1.0000 -0.0000
vn -0.0000 1.0000 0.0000
vn -0.0000 0.0000 1.0000
vn -1.0000 -0.0000 -0.0000
vn 0.0000 -0.0000 -1.0000
vn 1.0000 0.0000 0.0000
usemtl Material.002
s 1
f 1/1/1 3/2/1 4/3/1
f 6/4/2 8/5/2 5/6/2
f 5/7/3 2/8/3 1/9/3
f 8/10/4 3/11/4 2/12/4
f 3/13/5 6/14/5 4/15/5
f 1/1/6 6/4/6 5/16/6
f 1/1/1 2/17/1 3/2/1
f 6/4/2 7/18/2 8/5/2
f 5/7/3 8/19/3 2/8/3
f 8/10/4 7/20/4 3/11/4
f 3/13/5 7/21/5 6/14/5
f 1/1/6 4/22/6 6/4/6
o Cube.001_Cube.011
v 0.733926 0.481250 1.660163
v 0.133927 0.481250 1.660164
v 0.133927 0.481250 1.060164
v 0.733927 0.481250 1.060164
v 0.733926 1.081250 1.660164
v 0.733926 1.081250 1.060164
v 0.133927 1.081250 1.060163
v 0.133926 1.081250 1.660163
vt 0.000000 0.000000
vt 1.000000 1.000000
vt 0.000000 1.000000
vt 1.000000 1.000000
vt -0.000000 0.000000
vt 1.000000 -0.000000
vt 0.999900 0.999900
vt 0.000102 0.000100
vt 0.999900 0.000100
vt 0.999898 0.999899
vt 0.000100 0.000102
vt 0.999898 0.000100
vt 0.999900 0.000100
vt 0.000102 0.999900
vt 0.000100 0.000100
vt -0.000000 1.000000
vt 1.000000 0.000000
vt 0.000000 1.000000
vt 0.000100 0.999900
vt 0.000100 0.999900
vt 0.999900 0.999900
vt 1.000000 0.000000
vn -0.0000 -1.0000 -0.0000
vn -0.0000 1.0000 0.0000
vn -0.0000 0.0000 1.0000
vn -1.0000 -0.0000 -0.0000
vn 0.0000 -0.0000 -1.0000
vn 1.0000 0.0000 0.0000
usemtl Material.002
s 1
f 9/23/7 11/24/7 12/25/7
f 14/26/8 16/27/8 13/28/8
f 13/29/9 10/30/9 9/31/9
f 16/32/10 11/33/10 10/34/10
f 11/35/11 14/36/11 12/37/11
f 9/23/12 14/26/12 13/38/12
f 9/23/7 10/39/7 11/24/7
f 14/26/8 15/40/8 16/27/8
f 13/29/9 16/41/9 10/30/9
f 16/32/10 15/42/10 11/33/10
f 11/35/11 15/43/11 14/36/11
f 9/23/12 12/44/12 14/26/12
o Cube.007_Cube.016
v -1.958507 0.481250 -1.352717
v -2.558506 0.481250 -1.352716
v -2.558506 0.481250 -1.952716
v -1.958506 0.481250 -1.952716
v -1.958507 1.081250 -1.352716
v -1.958507 1.081250 -1.952716
v -2.558506 1.081250 -1.952717
v -2.558507 1.081250 -1.352717
vt 0.000000 0.000000
vt 1.000000 1.000000
vt 0.000000 1.000000
vt 1.000000 1.000000
vt -0.000000 0.000000
vt 1.000000 -0.000000
vt 0.999900 0.999900
vt 0.000102 0.000100
vt 0.999900 0.000100
vt 0.999898 0.999899
vt 0.000100 0.000102
vt 0.999898 0.000100
vt 0.999900 0.000100
vt 0.000102 0.999900
vt 0.000100 0.000100
vt -0.000000 1.000000
vt 1.000000 0.000000
vt 0.000000 1.000000
vt 0.000100 0.999900
vt 0.000100 0.999900
vt 0.999900 0.999900
vt 1.000000 0.000000
vn -0.0000 -1.0000 -0.0000
vn -0.0000 1.0000 0.0000
vn -0.0000 -0.0000 1.0000
vn -1.0000 -0.0000 -0.0000
vn 0.0000 -0.0000 -1.0000
vn 1.0000 0.0000 0.0000
usemtl Material.002
s 1
f 17/45/13 19/46/13 20/47/13
f 22/48/14 24/49/14 21/50/14
f 21/51/15 18/52/15 17/53/15
f 24/54/16 19/55/16 18/56/16
f 19/57/17 22/58/17 20/59/17
f 17/45/18 22/48/18 21/60/18
f 17/45/13 18/61/13 19/46/13
f 22/48/14 23/62/14 24/49/14
f 21/51/15 24/63/15 18/52/15
f 24/54/16 23/64/16 19/55/16
f 19/57/17 23/65/17 22/58/17
f 17/45/18 20/66/18 22/48/18
o Cube.008_Cube.017
v -1.958507 1.121790 -1.082671
v -2.558506 1.121790 -1.082670
v -2.558506 1.121790 -1.682670
v -1.958506 1.121790 -1.682670
v -1.958507 1.721790 -1.082670
v -1.958507 1.721790 -1.682670
v -2.558506 1.721790 -1.682671
v -2.558507 1.721790 -1.082671
vt 0.000000 0.000000
vt 1.000000 1.000000
vt 0.000000 1.000000
vt 1.000000 1.000000
vt -0.000000 0.000000
vt 1.000000 -0.000000
vt 0.999900 0.999900
vt 0.000102 0.000100
vt 0.999900 0.000100
vt 0.999898 0.999899
vt 0.000100 0.000102
vt 0.999898 0.000100
vt 0.999900 0.000100
vt 0.000102 0.999900
vt 0.000100 0.000100
vt -0.000000 1.000000
vt 1.000000 0.000000
vt 0.000000 1.000000
vt 0.000100 0.999900
vt 0.000100 0.999900
vt 0.999900 0.999900
vt 1.000000 0.000000
vn -0.0000 -1.0000 -0.0000
vn -0.0000 1.0000 -0.0000
vn -0.0000 -0.0000 1.0000
vn -1.0000 -0.0000 -0.0000
vn 0.0000 -0.0000 -1.0000
vn 1.0000 0.0000 0.0000
usemtl Material.002
s 1
f 25/67/19 27/68/19 28/69/19
f 30/70/20 32/71/20 29/72/20
f 29/73/21 26/74/21 25/75/21
f 32/76/22 27/77/22 26/78/22
f 27/79/23 30/80/23 28/81/23
f 25/67/24 30/70/24 29/82/24
f 25/67/19 26/83/19 27/68/19
f 30/70/20 31/84/20 32/71/20
f 29/73/21 32/85/21 26/74/21
f 32/76/22 31/86/22 27/77/22
f 27/79/23 31/87/23 30/80/23
f 25/67/24 28/88/24 30/70/24
o Cube.002_Cube.012
v 0.733926 0.481250 2.319655
v 0.133927 0.481250 2.319656
v 0.133927 0.481250 1.719656
v 0.733927 0.481250 1.719656
v 0.733926 1.081250 2.319656
v 0.733926 1.081250 1.719656
v 0.133927 1.081250 1.719655
v 0.133926 1.081250 2.319655
vt 0.000000 0.000000
vt 1.000000 1.000000
vt 0.000000 1.000000
vt 1.000000 1.000000
vt -0.000000 0.000000
vt 1.000000 -0.000000
vt 0.999900 0.999900
vt 0.000102 0.000100
vt 0.999900 0.000100
vt 0.999898 0.999899
vt 0.000100 0.000102
vt 0.999898 0.000100
vt 0.999900 0.000100
vt 0.000102 0.999900
vt 0.000100 0.000100
vt -0.000000 1.000000
vt 1.000000 0.000000
vt 0.000000 1.000000
vt 0.000100 0.999900
vt 0.000100 0.999900
vt 0.999900 0.999900
vt 1.000000 0.000000
vn -0.0000 -1.0000 -0.0000
vn -0.0000 1.0000 0.0000
vn -0.0000 -0.0000 1.0000
vn -1.0000 -0.0000 -0.0000
vn 0.0000 -0.0000 -1.0000
vn 1.0000 0.0000 0.0000
usemtl Material.002
s 1
f 33/89/25 35/90/25 36/91/25
f 38/92/26 40/93/26 37/94/26
f 37/95/27 34/96/27 33/97/27
f 40/98/28 35/99/28 34/100/28
f 35/101/29 38/102/29 36/103/29
f 33/89/30 38/92/30 37/104/30
f 33/89/25 34/105/25 35/90/25
f 38/92/26 39/106/26 40/93/26
f 37/95/27 40/107/27 34/96/27
f 40/98/28 39/108/28 35/99/28
f 35/101/29 39/109/29 38/102/29
f 33/89/30 36/110/30 38/92/30
o Cube.011_Cube.020
v -1.244910 0.481250 1.977151
v -1.833759 0.481250 1.862016
v -1.718622 0.481250 1.273166
v -1.129773 0.481250 1.388303
v -1.244910 1.081250 1.977152
v -1.129774 1.081250 1.388302
v -1.718622 1.081250 1.273166
v -1.833759 1.081250 1.862015
vt 0.000000 0.000000
vt 1.000000 1.000000
vt 0.000000 1.000000
vt 1.000000 1.000000
vt -0.000000 0.000000
vt 1.000000 -0.000000
vt 0.999900 0.999900
vt 0.000102 0.000100
vt 0.999900 0.000100
vt 0.999898 0.999899
vt 0.000100 0.000102
vt 0.999898 0.000100
vt 0.999900 0.000100
vt 0.000102 0.999900
vt 0.000100 0.000100
vt -0.000000 1.000000
vt 1.000000 0.000000
vt 1.000000 0.000000
vt 0.000000 1.000000
vt 0.000100 0.999900
vt 0.000100 0.999900
vt 0.999900 0.999900
vn -0.0000 -1.0000 -0.0000
vn -0.0000 1.0000 0.0000
vn -0.1919 0.0000 0.9814
vn -0.9814 0.0000 -0.1919
vn 0.1919 -0.0000 -0.9814
vn 0.9814 0.0000 0.1919
usemtl Material.002
s 1
f 41/111/31 43/112/31 44/113/31
f 46/114/32 48/115/32 45/116/32
f 45/117/33 42/118/33 41/119/33
f 48/120/34 43/121/34 42/122/34
f 43/123/35 46/124/35 44/125/35
f 45/126/36 44/127/36 46/114/36
f 41/111/31 42/128/31 43/112/31
f 46/114/32 47/129/32 48/115/32
f 45/117/33 48/130/33 42/118/33
f 48/120/34 47/131/34 43/121/34
f 43/123/35 47/132/35 46/124/35
f 45/126/36 41/111/36 44/127/36
o Cube.000_Cube.010
v 1.226787 1.085502 -1.367130
v 0.821925 1.085502 -0.924315
v 0.379110 1.085502 -1.329179
v 0.783973 1.085502 -1.771994
v 1.226788 1.685502 -1.367129
v 0.783973 1.685502 -1.771993
v 0.379109 1.685502 -1.329179
v 0.821924 1.685502 -0.924315
vt 0.000000 0.000000
vt 1.000000 1.000000
vt 0.000000 1.000000
vt 1.000000 1.000000
vt -0.000000 0.000000
vt 1.000000 -0.000000
vt 0.999900 0.999900
vt 0.000102 0.000100
vt 0.999900 0.000100
vt 0.999898 0.999899
vt 0.000100 0.000102
vt 0.999898 0.000100
vt 0.999900 0.000100
vt 0.000102 0.999900
vt 0.000100 0.000100
vt -0.000000 1.000000
vt 1.000000 0.000000
vt 0.000000 1.000000
vt 0.000100 0.999900
vt 0.000100 0.999900
vt 0.999900 0.999900
vt 1.000000 0.000000
vn -0.0000 -1.0000 -0.0000
vn 0.0000 1.0000 -0.0000
vn 0.7380 -0.0000 0.6748
vn -0.6748 -0.0000 0.7380
vn -0.7380 0.0000 -0.6748
vn 0.6748 0.0000 -0.7380
usemtl Material.002
s 1
f 49/133/37 51/134/37 52/135/37
f 54/136/38 56/137/38 53/138/38
f 53/139/39 50/140/39 49/141/39
f 56/142/40 51/143/40 50/144/40
f 51/145/41 54/146/41 52/147/41
f 49/133/42 54/136/42 53/148/42
f 49/133/37 50/149/37 51/134/37
f 54/136/38 55/150/38 56/137/38
f 53/139/39 56/151/39 50/140/39
f 56/142/40 55/152/40 51/143/40
f 51/145/41 55/153/41 54/146/41
f 49/133/42 52/154/42 54/136/42
o Cube.009_Cube.018
v -1.958507 0.481250 -0.656294
v -2.558506 0.481250 -0.656293
v -2.558506 0.481250 -1.256293
v -1.958506 0.481250 -1.256293
v -1.958507 1.081250 -0.656293
v -1.958507 1.081250 -1.256293
v -2.558506 1.081250 -1.256294
v -2.558507 1.081250 -0.656294
vt 0.000000 0.000000
vt 1.000000 1.000000
vt 0.000000 1.000000
vt 1.000000 1.000000
vt -0.000000 0.000000
vt 1.000000 -0.000000
vt 0.999900 0.999900
vt 0.000102 0.000100
vt 0.999900 0.000100
vt 0.999898 0.999899
vt 0.000100 0.000102
vt 0.999898 0.000100
vt 0.999900 0.000100
vt 0.000102 0.999900
vt 0.000100 0.000100
vt -0.000000 1.000000
vt 1.000000 0.000000
vt 0.000000 1.000000
vt 0.000100 0.999900
vt 0.000100 0.999900
vt 0.999900 0.999900
vt 1.000000 0.000000
vn -0.0000 -1.0000 -0.0000
vn -0.0000 1.0000 0.0000
vn -0.0000 -0.0000 1.0000
vn -1.0000 -0.0000 -0.0000
vn 0.0000 -0.0000 -1.0000
vn 1.0000 0.0000 0.0000
usemtl Material.002
s 1
f 57/155/43 59/156/43 60/157/43
f 62/158/44 64/159/44 61/160/44
f 61/161/45 58/162/45 57/163/45
f 64/164/46 59/165/46 58/166/46
f 59/167/47 62/168/47 60/169/47
f 57/155/48 62/158/48 61/170/48
f 57/155/43 58/171/43 59/156/43
f 62/158/44 63/172/44 64/159/44
f 61/161/45 64/173/45 58/162/45
f 64/164/46 63/174/46 59/165/46
f 59/167/47 63/175/47 62/168/47
f 57/155/48 60/176/48 62/158/48
o Cube.003_Cube.013
v 0.733926 1.093361 2.070577
v 0.133927 1.093361 2.070578
v 0.133927 1.093361 1.470577
v 0.733927 1.093361 1.470577
v 0.733926 1.693361 2.070578
v 0.733926 1.693361 1.470578
v 0.133927 1.693361 1.470577
v 0.133926 1.693361 2.070577
vt 0.000000 0.000000
vt 1.000000 1.000000
vt 0.000000 1.000000
vt 1.000000 1.000000
vt -0.000000 0.000000
vt 1.000000 -0.000000
vt 0.999900 0.999900
vt 0.000102 0.000100
vt 0.999900 0.000100
vt 0.999898 0.999899
vt 0.000100 0.000102
vt 0.999898 0.000100
vt 0.999900 0.000100
vt 0.000102 0.999900
vt 0.000100 0.000100
vt -0.000000 1.000000
vt 1.000000 0.000000
vt 0.000000 1.000000
vt 0.000100 0.999900
vt 0.000100 0.999900
vt 0.999900 0.999900
vt 1.000000 0.000000
vn -0.0000 -1.0000 0.0000
vn -0.0000 1.0000 0.0000
vn 0.0000 -0.0000 1.0000
vn -1.0000 -0.0000 -0.0000
vn 0.0000 0.0000 -1.0000
vn 1.0000 0.0000 0.0000
usemtl Material.002
s 1
f 65/177/49 67/178/49 68/179/49
f 70/180/50 72/181/50 69/182/50
f 69/183/51 66/184/51 65/185/51
f 72/186/52 67/187/52 66/188/52
f 67/189/53 70/190/53 68/191/53
f 65/177/54 70/180/54 69/192/54
f 65/177/49 66/193/49 67/178/49
f 70/180/50 71/194/50 72/181/50
f 69/183/51 72/195/51 66/184/51
f 72/186/52 71/196/52 67/187/52
f 67/189/53 71/197/53 70/190/53
f 65/177/54 68/198/54 70/180/54
o Cube.005_Cube.015
v -1.958507 0.481250 0.044723
v -2.558506 0.481250 0.044724
v -2.558506 0.481250 -0.555276
v -1.958506 0.481250 -0.555276
v -1.958507 1.081250 0.044724
v -1.958507 1.081250 -0.555276
v -2.558506 1.081250 -0.555277
v -2.558507 1.081250 0.044723
vt 0.000000 0.000000
vt 1.000000 1.000000
vt 0.000000 1.000000
vt 1.000000 1.000000
vt -0.000000 0.000000
vt 1.000000 -0.000000
vt 0.999900 0.999900
vt 0.000102 0.000100
vt 0.999900 0.000100
vt 0.999898 0.999899
vt 0.000100 0.000102
vt 0.999898 0.000100
vt 0.999900 0.000100
vt 0.000102 0.999900
vt 0.000100 0.000100
vt -0.000000 1.000000
vt 1.000000 0.000000
vt 0.000000 1.000000
vt 0.000100 0.999900
vt 0.000100 0.999900
vt 0.999900 0.999900
vt 1.000000 0.000000
vn -0.0000 -1.0000 -0.0000
vn -0.0000 1.0000 0.0000
vn -0.0000 -0.0000 1.0000
vn -1.0000 -0.0000 -0.0000
vn 0.0000 -0.0000 -1.0000
vn 1.0000 0.0000 0.0000
usemtl Material.002
s 1
f 73/199/55 75/200/55 76/201/55
f 78/202/56 80/203/56 77/204/56
f 77/205/57 74/206/57 73/207/57
f 80/208/58 75/209/58 74/210/58
f 75/211/59 78/212/59 76/213/59
f 73/199/60 78/202/60 77/214/60
f 73/199/55 74/215/55 75/200/55
f 78/202/56 79/216/56 80/203/56
f 77/205/57 80/217/57 74/206/57
f 80/208/58 79/218/58 75/209/58
f 75/211/59 79/219/59 78/212/59
f 73/199/60 76/220/60 78/202/60
o Cube.006
v 1.102948 0.481250 -1.048155
v 0.502949 0.481250 -1.048154
v 0.502949 0.481250 -1.648154
v 1.102949 0.481250 -1.648154
v 1.102948 1.081250 -1.048154
v 1.102948 1.081250 -1.648154
v 0.502949 1.081250 -1.648155
v 0.502948 1.081250 -1.048155
vt 0.000000 0.000000
vt 1.000000 1.000000
vt 0.000000 1.000000
vt 1.000000 1.000000
vt -0.000000 0.000000
vt 1.000000 -0.000000
vt 0.999900 0.999900
vt 0.000102 0.000100
vt 0.999900 0.000100
vt 0.999898 0.999899
vt 0.000100 0.000102
vt 0.999898 0.000100
vt 0.999900 0.000100
vt 0.000102 0.999900
vt 0.000100 0.000100
vt -0.000000 1.000000
vt 1.000000 0.000000
vt 0.000000 1.000000
vt 0.000100 0.999900
vt 0.000100 0.999900
vt 0.999900 0.999900
vt 1.000000 0.000000
vn -0.0000 -1.0000 -0.0000
vn -0.0000 1.0000 0.0000
vn -0.0000 0.0000 1.0000
vn -1.0000 -0.0000 -0.0000
vn 0.0000 -0.0000 -1.0000
vn 1.0000 0.0000 0.0000
usemtl Material.002
s 1
f 81/221/61 83/222/61 84/223/61
f 86/224/62 88/225/62 85/226/62
f 85/227/63 82/228/63 81/229/63
f 88/230/64 83/231/64 82/232/64
f 83/233/65 86/234/65 84/235/65
f 81/221/66 86/224/66 85/236/66
f 81/221/61 82/237/61 83/222/61
f 86/224/62 87/238/62 88/225/62
f 85/227/63 88/239/63 82/228/63
f 88/230/64 87/240/64 83/231/64
f 83/233/65 87/241/65 86/234/65
f 81/221/66 84/242/66 86/224/66
o Plane
v -2.850320 0.478113 -2.357596
v -2.850319 0.478113 2.442404
v 1.949681 0.478113 2.442403
v 1.949680 0.478113 -2.357597
vt 3.149500 -2.149500
vt -2.149500 3.149500
vt -2.149500 -2.149500
vt 3.149500 3.149500
vn 0.0000 1.0000 0.0000
usemtl Material.001
s 1
f 90/243/67 92/244/67 89/245/67
f 90/243/67 91/246/67 92/244/67
o Cube.010_Cube.019
v -1.081385 0.481250 -0.744323
v -1.622103 0.481250 -0.484278
v -1.882147 0.481250 -1.024997
v -1.341429 0.481250 -1.285041
v -1.081385 1.081250 -0.744322
v -1.341429 1.081250 -1.285041
v -1.882148 1.081250 -1.024997
v -1.622104 1.081250 -0.484278
vt 0.000000 0.000000
vt 1.000000 1.000000
vt 0.000000 1.000000
vt 1.000000 1.000000
vt -0.000000 0.000000
vt 1.000000 -0.000000
vt 0.999900 0.999900
vt 0.000102 0.000100
vt 0.999900 0.000100
vt 0.999898 0.999899
vt 0.000100 0.000102
vt 0.999898 0.000100
vt 0.999900 0.000100
vt 0.000102 0.999900
vt 0.000100 0.000100
vt -0.000000 1.000000
vt 1.000000 0.000000
vt 0.000000 1.000000
vt 0.000100 0.999900
vt 0.000100 0.999900
vt 0.999900 0.999900
vt 1.000000 0.000000
vn -0.0000 -1.0000 -0.0000
vn -0.0000 1.0000 0.0000
vn 0.4334 -0.0000 0.9012
vn -0.9012 -0.0000 0.4334
vn -0.4334 -0.0000 -0.9012
vn 0.9012 0.0000 -0.4334
usemtl Material.003
s 1
f 93/247/68 95/248/68 96/249/68
f 98/250/69 100/251/69 97/252/69
f 97/253/70 94/254/70 93/255/70
f 100/256/71 95/257/71 94/258/71
f 95/259/72 98/260/72 96/261/72
f 93/247/73 98/250/73 97/262/73
f 93/247/68 94/263/68 95/248/68
f 98/250/69 99/264/69 100/251/69
f 97/253/70 100/265/70 94/254/70
f 100/256/71 99/266/71 95/257/71
f 95/259/72 99/267/72 98/260/72
f 93/247/73 96/268/73 98/250/73
