# Blender v2.79 (sub 0) OBJ File: ''
# www.blender.org
mtllib test.mtl
o Cube.001
v 1.102948 0.481250 -1.048155
v 0.502949 0.481250 -1.648154
v 1.102949 0.481250 -1.648154
v 1.102948 1.081250 -1.648154
v 0.502948 1.081250 -1.048155
v 1.102948 1.081250 -1.048154
v 0.502949 0.481250 -1.048154
v 0.502949 1.081250 -1.648155
vt 0.000000 0.000000
vt 1.000000 1.000000
vt 0.000000 1.000000
vt 1.000000 1.000000
vt -0.000000 0.000000
vt 1.000000 -0.000000
vt 0.999900 0.999900
vt 0.000102 0.000100
vt 0.999900 0.000100
vt 0.999898 0.999899
vt 0.000100 0.000102
vt 0.999898 0.000100
vt 0.999900 0.000100
vt 0.000102 0.999900
vt 0.000100 0.000100
vt -0.000000 1.000000
vt 1.000000 0.000000
vt 0.000000 1.000000
vt 0.000100 0.999900
vt 0.000100 0.999900
vt 0.999900 0.999900
vt 1.000000 0.000000
vn -0.0000 -1.0000 -0.0000
vn -0.0000 1.0000 0.0000
vn -0.0000 0.0000 1.0000
vn -1.0000 -0.0000 -0.0000
vn 0.0000 -0.0000 -1.0000
vn 1.0000 0.0000 0.0000
usemtl Material.006
s 1
f 1/1/1 2/2/1 3/3/1
f 4/4/2 5/5/2 6/6/2
f 6/7/3 7/8/3 1/9/3
f 5/10/4 2/11/4 7/12/4
f 2/13/5 4/14/5 3/15/5
f 1/1/6 4/4/6 6/16/6
f 1/1/1 7/17/1 2/2/1
f 4/4/2 8/18/2 5/5/2
f 6/7/3 5/19/3 7/8/3
f 5/10/4 8/20/4 2/11/4
f 2/13/5 8/21/5 4/14/5
f 1/1/6 3/22/6 4/4/6
o Cube.008_Cube.000
v -1.958507 1.121790 -1.082671
v -2.558506 1.121790 -1.682670
v -1.958506 1.121790 -1.682670
v -1.958507 1.721790 -1.682670
v -2.558507 1.721790 -1.082671
v -1.958507 1.721790 -1.082670
v -2.558506 1.121790 -1.082670
v -2.558506 1.721790 -1.682671
vt 0.000000 0.000000
vt 1.000000 1.000000
vt 0.000000 1.000000
vt 1.000000 1.000000
vt -0.000000 0.000000
vt 1.000000 -0.000000
vt 0.999900 0.999900
vt 0.000102 0.000100
vt 0.999900 0.000100
vt 0.999898 0.999899
vt 0.000100 0.000102
vt 0.999898 0.000100
vt 0.999900 0.000100
vt 0.000102 0.999900
vt 0.000100 0.000100
vt -0.000000 1.000000
vt 1.000000 0.000000
vt 0.000000 1.000000
vt 0.000100 0.999900
vt 0.000100 0.999900
vt 0.999900 0.999900
vt 1.000000 0.000000
vn -0.0000 -1.0000 -0.0000
vn -0.0000 1.0000 -0.0000
vn -0.0000 -0.0000 1.0000
vn -1.0000 -0.0000 -0.0000
vn 0.0000 -0.0000 -1.0000
vn 1.0000 0.0000 0.0000
usemtl Material.006
s 1
f 9/23/7 10/24/7 11/25/7
f 12/26/8 13/27/8 14/28/8
f 14/29/9 15/30/9 9/31/9
f 13/32/10 10/33/10 15/34/10
f 10/35/11 12/36/11 11/37/11
f 9/23/12 12/26/12 14/38/12
f 9/23/7 15/39/7 10/24/7
f 12/26/8 16/40/8 13/27/8
f 14/29/9 13/41/9 15/30/9
f 13/32/10 16/42/10 10/33/10
f 10/35/11 16/43/11 12/36/11
f 9/23/12 11/44/12 12/26/12
o Cube.002_Cube.000
v 0.733926 0.481250 2.319655
v 0.133927 0.481250 1.719656
v 0.733927 0.481250 1.719656
v 0.733926 1.081250 1.719656
v 0.133926 1.081250 2.319655
v 0.733926 1.081250 2.319656
v 0.133927 0.481250 2.319656
v 0.133927 1.081250 1.719655
vt 0.000000 0.000000
vt 1.000000 1.000000
vt 0.000000 1.000000
vt 1.000000 1.000000
vt -0.000000 0.000000
vt 1.000000 -0.000000
vt 0.999900 0.999900
vt 0.000102 0.000100
vt 0.999900 0.000100
vt 0.999898 0.999899
vt 0.000100 0.000102
vt 0.999898 0.000100
vt 0.999900 0.000100
vt 0.000102 0.999900
vt 0.000100 0.000100
vt -0.000000 1.000000
vt 1.000000 0.000000
vt 0.000000 1.000000
vt 0.000100 0.999900
vt 0.000100 0.999900
vt 0.999900 0.999900
vt 1.000000 0.000000
vn -0.0000 -1.0000 -0.0000
vn -0.0000 1.0000 0.0000
vn -0.0000 -0.0000 1.0000
vn -1.0000 -0.0000 -0.0000
vn 0.0000 -0.0000 -1.0000
vn 1.0000 0.0000 0.0000
usemtl Material.006
s 1
f 17/45/13 18/46/13 19/47/13
f 20/48/14 21/49/14 22/50/14
f 22/51/15 23/52/15 17/53/15
f 21/54/16 18/55/16 23/56/16
f 18/57/17 20/58/17 19/59/17
f 17/45/18 20/48/18 22/60/18
f 17/45/13 23/61/13 18/46/13
f 20/48/14 24/62/14 21/49/14
f 22/51/15 21/63/15 23/52/15
f 21/54/16 24/64/16 18/55/16
f 18/57/17 24/65/17 20/58/17
f 17/45/18 19/66/18 20/48/18
o Cube.003_Cube.000
v 0.733926 1.093361 2.070577
v 0.133927 1.093361 1.470577
v 0.733927 1.093361 1.470577
v 0.733926 1.693361 1.470578
v 0.133926 1.693361 2.070577
v 0.733926 1.693361 2.070578
v 0.133927 1.093361 2.070578
v 0.133927 1.693361 1.470577
vt 0.000000 0.000000
vt 1.000000 1.000000
vt 0.000000 1.000000
vt 1.000000 1.000000
vt -0.000000 0.000000
vt 1.000000 -0.000000
vt 0.999900 0.999900
vt 0.000102 0.000100
vt 0.999900 0.000100
vt 0.999898 0.999899
vt 0.000100 0.000102
vt 0.999898 0.000100
vt 0.999900 0.000100
vt 0.000102 0.999900
vt 0.000100 0.000100
vt -0.000000 1.000000
vt 1.000000 0.000000
vt 0.000000 1.000000
vt 0.000100 0.999900
vt 0.000100 0.999900
vt 0.999900 0.999900
vt 1.000000 0.000000
vn -0.0000 -1.0000 0.0000
vn -0.0000 1.0000 0.0000
vn 0.0000 -0.0000 1.0000
vn -1.0000 -0.0000 -0.0000
vn 0.0000 0.0000 -1.0000
vn 1.0000 0.0000 0.0000
usemtl Material.006
s 1
f 25/67/19 26/68/19 27/69/19
f 28/70/20 29/71/20 30/72/20
f 30/73/21 31/74/21 25/75/21
f 29/76/22 26/77/22 31/78/22
f 26/79/23 28/80/23 27/81/23
f 25/67/24 28/70/24 30/82/24
f 25/67/19 31/83/19 26/68/19
f 28/70/20 32/84/20 29/71/20
f 30/73/21 29/85/21 31/74/21
f 29/76/22 32/86/22 26/77/22
f 26/79/23 32/87/23 28/80/23
f 25/67/24 27/88/24 28/70/24
o Plane.001
v -2.850319 0.478113 2.442404
v 1.949680 0.478113 -2.357597
v -2.850320 0.478113 -2.357596
v 1.949681 0.478113 2.442403
vt 3.149500 -2.149500
vt -2.149500 3.149500
vt -2.149500 -2.149500
vt 3.149500 3.149500
vn 0.0000 1.0000 0.0000
usemtl Material.007
s 1
f 33/89/25 34/90/25 35/91/25
f 33/89/25 36/92/25 34/90/25
o Cube.005_Cube.000
v -1.958507 0.481250 0.044723
v -2.558506 0.481250 -0.555276
v -1.958506 0.481250 -0.555276
v -1.958507 1.081250 -0.555276
v -2.558507 1.081250 0.044723
v -1.958507 1.081250 0.044724
v -2.558506 0.481250 0.044724
v -2.558506 1.081250 -0.555277
vt 0.000000 0.000000
vt 1.000000 1.000000
vt 0.000000 1.000000
vt 1.000000 1.000000
vt -0.000000 0.000000
vt 1.000000 -0.000000
vt 0.999900 0.999900
vt 0.000102 0.000100
vt 0.999900 0.000100
vt 0.999898 0.999899
vt 0.000100 0.000102
vt 0.999898 0.000100
vt 0.999900 0.000100
vt 0.000102 0.999900
vt 0.000100 0.000100
vt -0.000000 1.000000
vt 1.000000 0.000000
vt 0.000000 1.000000
vt 0.000100 0.999900
vt 0.000100 0.999900
vt 0.999900 0.999900
vt 1.000000 0.000000
vn -0.0000 -1.0000 -0.0000
vn -0.0000 1.0000 0.0000
vn -0.0000 -0.0000 1.0000
vn -1.0000 -0.0000 -0.0000
vn 0.0000 -0.0000 -1.0000
vn 1.0000 0.0000 0.0000
usemtl Material.006
s 1
f 37/93/26 38/94/26 39/95/26
f 40/96/27 41/97/27 42/98/27
f 42/99/28 43/100/28 37/101/28
f 41/102/29 38/103/29 43/104/29
f 38/105/30 40/106/30 39/107/30
f 37/93/31 40/96/31 42/108/31
f 37/93/26 43/109/26 38/94/26
f 40/96/27 44/110/27 41/97/27
f 42/99/28 41/111/28 43/100/28
f 41/102/29 44/112/29 38/103/29
f 38/105/30 44/113/30 40/106/30
f 37/93/31 39/114/31 40/96/31
o Cube.001_Cube.000
v 0.733926 0.481250 1.660163
v 0.133927 0.481250 1.060164
v 0.733927 0.481250 1.060164
v 0.733926 1.081250 1.060164
v 0.133926 1.081250 1.660163
v 0.733926 1.081250 1.660164
v 0.133927 0.481250 1.660164
v 0.133927 1.081250 1.060163
vt 0.000000 0.000000
vt 1.000000 1.000000
vt 0.000000 1.000000
vt 1.000000 1.000000
vt -0.000000 0.000000
vt 1.000000 -0.000000
vt 0.999900 0.999900
vt 0.000102 0.000100
vt 0.999900 0.000100
vt 0.999898 0.999899
vt 0.000100 0.000102
vt 0.999898 0.000100
vt 0.999900 0.000100
vt 0.000102 0.999900
vt 0.000100 0.000100
vt -0.000000 1.000000
vt 1.000000 0.000000
vt 0.000000 1.000000
vt 0.000100 0.999900
vt 0.000100 0.999900
vt 0.999900 0.999900
vt 1.000000 0.000000
vn -0.0000 -1.0000 -0.0000
vn -0.0000 1.0000 0.0000
vn -0.0000 0.0000 1.0000
vn -1.0000 -0.0000 -0.0000
vn 0.0000 -0.0000 -1.0000
vn 1.0000 0.0000 0.0000
usemtl Material.006
s 1
f 45/115/32 46/116/32 47/117/32
f 48/118/33 49/119/33 50/120/33
f 50/121/34 51/122/34 45/123/34
f 49/124/35 46/125/35 51/126/35
f 46/127/36 48/128/36 47/129/36
f 45/115/37 48/118/37 50/130/37
f 45/115/32 51/131/32 46/116/32
f 48/118/33 52/132/33 49/119/33
f 50/121/34 49/133/34 51/122/34
f 49/124/35 52/134/35 46/125/35
f 46/127/36 52/135/36 48/128/36
f 45/115/37 47/136/37 48/118/37
o Cube.009_Cube.000
v -1.958507 0.481250 -0.656294
v -2.558506 0.481250 -1.256293
v -1.958506 0.481250 -1.256293
v -1.958507 1.081250 -1.256293
v -2.558507 1.081250 -0.656294
v -1.958507 1.081250 -0.656293
v -2.558506 0.481250 -0.656293
v -2.558506 1.081250 -1.256294
vt 0.000000 0.000000
vt 1.000000 1.000000
vt 0.000000 1.000000
vt 1.000000 1.000000
vt -0.000000 0.000000
vt 1.000000 -0.000000
vt 0.999900 0.999900
vt 0.000102 0.000100
vt 0.999900 0.000100
vt 0.999898 0.999899
vt 0.000100 0.000102
vt 0.999898 0.000100
vt 0.999900 0.000100
vt 0.000102 0.999900
vt 0.000100 0.000100
vt -0.000000 1.000000
vt 1.000000 0.000000
vt 0.000000 1.000000
vt 0.000100 0.999900
vt 0.000100 0.999900
vt 0.999900 0.999900
vt 1.000000 0.000000
vn -0.0000 -1.0000 -0.0000
vn -0.0000 1.0000 0.0000
vn -0.0000 -0.0000 1.0000
vn -1.0000 -0.0000 -0.0000
vn 0.0000 -0.0000 -1.0000
vn 1.0000 0.0000 0.0000
usemtl Material.006
s 1
f 53/137/38 54/138/38 55/139/38
f 56/140/39 57/141/39 58/142/39
f 58/143/40 59/144/40 53/145/40
f 57/146/41 54/147/41 59/148/41
f 54/149/42 56/150/42 55/151/42
f 53/137/43 56/140/43 58/152/43
f 53/137/38 59/153/38 54/138/38
f 56/140/39 60/154/39 57/141/39
f 58/143/40 57/155/40 59/144/40
f 57/146/41 60/156/41 54/147/41
f 54/149/42 60/157/42 56/150/42
f 53/137/43 55/158/43 56/140/43
o Cube.010_Cube.000
v -0.009514 0.619300 -0.215583
v -0.810276 0.619300 -0.496257
v -0.269558 0.619300 -0.756301
v -0.269558 1.219300 -0.756301
v -0.550233 1.219300 0.044462
v -0.009514 1.219300 -0.215582
v -0.550232 0.619300 0.044462
v -0.810277 1.219300 -0.496257
vt 0.000000 0.000000
vt 1.000000 1.000000
vt 0.000000 1.000000
vt 1.000000 1.000000
vt -0.000000 0.000000
vt 1.000000 -0.000000
vt 0.999900 0.999900
vt 0.000102 0.000100
vt 0.999900 0.000100
vt 0.999898 0.999899
vt 0.000100 0.000102
vt 0.999898 0.000100
vt 0.999900 0.000100
vt 0.000102 0.999900
vt 0.000100 0.000100
vt -0.000000 1.000000
vt 1.000000 0.000000
vt 0.000000 1.000000
vt 0.000100 0.999900
vt 0.000100 0.999900
vt 0.999900 0.999900
vt 1.000000 0.000000
vn 0.0000 -1.0000 -0.0000
vn 0.0000 1.0000 0.0000
vn 0.4334 -0.0000 0.9012
vn -0.9012 -0.0000 0.4334
vn -0.4334 -0.0000 -0.9012
vn 0.9012 0.0000 -0.4334
usemtl Material.005
s 1
f 61/159/44 62/160/44 63/161/44
f 64/162/45 65/163/45 66/164/45
f 66/165/46 67/166/46 61/167/46
f 65/168/47 62/169/47 67/170/47
f 62/171/48 64/172/48 63/173/48
f 61/159/49 64/162/49 66/174/49
f 61/159/44 67/175/44 62/160/44
f 64/162/45 68/176/45 65/163/45
f 66/165/46 65/177/46 67/166/46
f 65/168/47 68/178/47 62/169/47
f 62/171/48 68/179/48 64/172/48
f 61/159/49 63/180/49 64/162/49
o Cube.007_Cube.000
v -1.958507 0.481250 -1.352717
v -2.558506 0.481250 -1.952716
v -1.958506 0.481250 -1.952716
v -1.958507 1.081250 -1.952716
v -2.558507 1.081250 -1.352717
v -1.958507 1.081250 -1.352716
v -2.558506 0.481250 -1.352716
v -2.558506 1.081250 -1.952717
vt 0.000000 0.000000
vt 1.000000 1.000000
vt 0.000000 1.000000
vt 1.000000 1.000000
vt -0.000000 0.000000
vt 1.000000 -0.000000
vt 0.999900 0.999900
vt 0.000102 0.000100
vt 0.999900 0.000100
vt 0.999898 0.999899
vt 0.000100 0.000102
vt 0.999898 0.000100
vt 0.999900 0.000100
vt 0.000102 0.999900
vt 0.000100 0.000100
vt -0.000000 1.000000
vt 1.000000 0.000000
vt 0.000000 1.000000
vt 0.000100 0.999900
vt 0.000100 0.999900
vt 0.999900 0.999900
vt 1.000000 0.000000
vn -0.0000 -1.0000 -0.0000
vn -0.0000 1.0000 0.0000
vn -0.0000 -0.0000 1.0000
vn -1.0000 -0.0000 -0.0000
vn 0.0000 -0.0000 -1.0000
vn 1.0000 0.0000 0.0000
usemtl Material.006
s 1
f 69/181/50 70/182/50 71/183/50
f 72/184/51 73/185/51 74/186/51
f 74/187/52 75/188/52 69/189/52
f 73/190/53 70/191/53 75/192/53
f 70/193/54 72/194/54 71/195/54
f 69/181/55 72/184/55 74/196/55
f 69/181/50 75/197/50 70/182/50
f 72/184/51 76/198/51 73/185/51
f 74/187/52 73/199/52 75/188/52
f 73/190/53 76/200/53 70/191/53
f 70/193/54 76/201/54 72/194/54
f 69/181/55 71/202/55 72/184/55
o Cube.004_Cube.000
v -1.958507 0.481250 1.660163
v -2.558506 0.481250 1.060164
v -1.958506 0.481250 1.060164
v -1.958507 1.081250 1.060164
v -2.558507 1.081250 1.660163
v -1.958507 1.081250 1.660164
v -2.558506 0.481250 1.660164
v -2.558506 1.081250 1.060163
vt 0.000000 0.000000
vt 1.000000 1.000000
vt 0.000000 1.000000
vt 1.000000 1.000000
vt -0.000000 0.000000
vt 1.000000 -0.000000
vt 0.999900 0.999900
vt 0.000102 0.000100
vt 0.999900 0.000100
vt 0.999898 0.999899
vt 0.000100 0.000102
vt 0.999898 0.000100
vt 0.999900 0.000100
vt 0.000102 0.999900
vt 0.000100 0.000100
vt -0.000000 1.000000
vt 1.000000 0.000000
vt 0.000000 1.000000
vt 0.000100 0.999900
vt 0.000100 0.999900
vt 0.999900 0.999900
vt 1.000000 0.000000
vn -0.0000 -1.0000 -0.0000
vn -0.0000 1.0000 0.0000
vn -0.0000 0.0000 1.0000
vn -1.0000 -0.0000 -0.0000
vn 0.0000 -0.0000 -1.0000
vn 1.0000 0.0000 0.0000
usemtl Material.006
s 1
f 77/203/56 78/204/56 79/205/56
f 80/206/57 81/207/57 82/208/57
f 82/209/58 83/210/58 77/211/58
f 81/212/59 78/213/59 83/214/59
f 78/215/60 80/216/60 79/217/60
f 77/203/61 80/206/61 82/218/61
f 77/203/56 83/219/56 78/204/56
f 80/206/57 84/220/57 81/207/57
f 82/209/58 81/221/58 83/210/58
f 81/212/59 84/222/59 78/213/59
f 78/215/60 84/223/60 80/216/60
f 77/203/61 79/224/61 80/206/61
o Cube.000_Cube.000
v 1.226787 1.085502 -1.367130
v 0.379110 1.085502 -1.329179
v 0.783973 1.085502 -1.771994
v 0.783973 1.685502 -1.771993
v 0.821924 1.685502 -0.924315
v 1.226788 1.685502 -1.367129
v 0.821925 1.085502 -0.924315
v 0.379109 1.685502 -1.329179
vt 0.000000 0.000000
vt 1.000000 1.000000
vt 0.000000 1.000000
vt 1.000000 1.000000
vt -0.000000 0.000000
vt 1.000000 -0.000000
vt 0.999900 0.999900
vt 0.000102 0.000100
vt 0.999900 0.000100
vt 0.999898 0.999899
vt 0.000100 0.000102
vt 0.999898 0.000100
vt 0.999900 0.000100
vt 0.000102 0.999900
vt 0.000100 0.000100
vt -0.000000 1.000000
vt 1.000000 0.000000
vt 0.000000 1.000000
vt 0.000100 0.999900
vt 0.000100 0.999900
vt 0.999900 0.999900
vt 1.000000 0.000000
vn -0.0000 -1.0000 -0.0000
vn 0.0000 1.0000 -0.0000
vn 0.7380 -0.0000 0.6748
vn -0.6748 -0.0000 0.7380
vn -0.7380 0.0000 -0.6748
vn 0.6748 0.0000 -0.7380
usemtl Material.006
s 1
f 85/225/62 86/226/62 87/227/62
f 88/228/63 89/229/63 90/230/63
f 90/231/64 91/232/64 85/233/64
f 89/234/65 86/235/65 91/236/65
f 86/237/66 88/238/66 87/239/66
f 85/225/67 88/228/67 90/240/67
f 85/225/62 91/241/62 86/226/62
f 88/228/63 92/242/63 89/229/63
f 90/231/64 89/243/64 91/232/64
f 89/234/65 92/244/65 86/235/65
f 86/237/66 92/245/66 88/238/66
f 85/225/67 87/246/67 88/228/67
o Cube.011_Cube.000
v -1.244910 0.481250 1.977151
v -1.718622 0.481250 1.273166
v -1.129773 0.481250 1.388303
v -1.129774 1.081250 1.388302
v -1.833759 1.081250 1.862015
v -1.244910 1.081250 1.977152
v -1.833759 0.481250 1.862016
v -1.718622 1.081250 1.273166
vt 0.000000 0.000000
vt 1.000000 1.000000
vt 0.000000 1.000000
vt 1.000000 1.000000
vt -0.000000 0.000000
vt 1.000000 -0.000000
vt 0.999900 0.999900
vt 0.000102 0.000100
vt 0.999900 0.000100
vt 0.999898 0.999899
vt 0.000100 0.000102
vt 0.999898 0.000100
vt 0.999900 0.000100
vt 0.000102 0.999900
vt 0.000100 0.000100
vt -0.000000 1.000000
vt 1.000000 0.000000
vt 1.000000 0.000000
vt 0.000000 1.000000
vt 0.000100 0.999900
vt 0.000100 0.999900
vt 0.999900 0.999900
vn -0.0000 -1.0000 -0.0000
vn -0.0000 1.0000 0.0000
vn -0.1919 0.0000 0.9814
vn -0.9814 0.0000 -0.1919
vn 0.1919 -0.0000 -0.9814
vn 0.9814 0.0000 0.1919
usemtl Material.006
s 1
f 93/247/68 94/248/68 95/249/68
f 96/250/69 97/251/69 98/252/69
f 98/253/70 99/254/70 93/255/70
f 97/256/71 94/257/71 99/258/71
f 94/259/72 96/260/72 95/261/72
f 98/262/73 95/263/73 96/250/73
f 93/247/68 99/264/68 94/248/68
f 96/250/69 100/265/69 97/251/69
f 98/253/70 97/266/70 99/254/70
f 97/256/71 100/267/71 94/257/71
f 94/259/72 100/268/72 96/260/72
f 98/262/73 93/247/73 95/263/73
