# Blender v2.79 (sub 0) OBJ File: 'untitled.blend'
# www.blender.org
mtllib wooden_hut_hill.mtl
o Plane.002_Plane.006
v 17.780001 -0.364429 -19.830105
v -17.780001 -0.364429 -19.830105
v 17.780001 0.026286 17.780001
v -17.780001 0.026286 17.780001
v 10.195530 -0.935267 -19.830105
v -10.195530 -0.935267 -19.830105
v -10.195530 -0.544552 17.780001
v 10.195530 -0.544552 17.780001
v 24.611715 -1.235821 -18.173006
v 24.549164 -0.845106 15.846151
v -25.247112 -1.407862 -17.302324
v -24.910507 -1.017147 15.383293
v 17.780001 0.539504 9.455509
v 17.780001 0.539504 -11.704959
v -17.780001 0.539504 -11.704959
v -17.780001 0.539504 9.455509
v 10.195530 -0.031334 -11.704959
v 10.195530 -0.031334 9.455509
v -10.195530 -0.031334 -11.704959
v -10.195530 -0.031334 9.455509
v 28.991262 -0.331888 9.455509
v 28.991262 -0.331888 -11.704959
v -29.065659 -0.503929 -11.704959
v -29.065659 -0.503929 9.455509
vt 2.790483 2.891269
vt 4.508308 2.887126
vt 4.507326 4.769332
vt 2.789623 4.775356
vt -3.528856 2.890313
vt -1.814300 2.893656
vt -1.812468 4.775308
vt -3.526776 4.769786
vt -5.070531 4.347474
vt -6.064025 2.894421
vt 4.506883 -1.879330
vt 4.504194 -3.720054
vt 6.215328 -3.179752
vt 7.060337 -1.888192
vt 7.067201 2.888105
vt 6.141247 4.242758
vt -3.529144 -3.719518
vt -3.530683 -1.876410
vt -6.067201 -1.881139
vt -5.091592 -3.367966
vt -1.812313 -3.730823
vt 2.790516 -3.730781
vt 2.792853 -1.886389
vt -1.813984 -1.883820
vn 0.0375 0.9988 0.0308
vn -0.0170 0.9989 0.0424
vn -0.0143 0.9965 0.0824
vn 0.0374 0.9974 0.0615
vn 0.0086 0.9991 0.0407
vn -0.0375 0.9988 0.0308
vn -0.0374 0.9974 0.0615
vn 0.0074 0.9968 0.0797
vn 0.1068 0.9891 0.1012
vn 0.0888 0.9953 0.0388
vn -0.0184 0.9974 -0.0691
vn -0.0169 0.9906 -0.1355
vn -0.1310 0.9775 -0.1652
vn -0.1075 0.9921 -0.0643
vn -0.1051 0.9936 0.0412
vn -0.1258 0.9862 0.1077
vn 0.0101 0.9913 -0.1312
vn 0.0092 0.9977 -0.0663
vn 0.0900 0.9941 -0.0599
vn 0.1090 0.9820 -0.1544
vn -0.0372 0.9932 -0.1105
vn 0.0372 0.9932 -0.1105
vn 0.0375 0.9977 -0.0554
vn -0.0375 0.9977 -0.0554
usemtl ground
s 1
f 20/1/1 16/2/2 4/3/3 7/4/4
f 13/5/5 18/6/6 8/7/7 3/8/8
f 18/6/6 20/1/1 7/4/4 8/7/7
f 13/5/5 3/8/8 10/9/9 21/10/10
f 15/11/11 2/12/12 11/13/13 23/14/14
f 4/3/3 16/2/2 24/15/15 12/16/16
f 16/2/2 15/11/11 23/14/14 24/15/15
f 1/17/17 14/18/18 22/19/19 9/20/20
f 14/18/18 13/5/5 21/10/10 22/19/19
f 5/21/21 6/22/22 19/23/23 17/24/24
f 17/24/24 19/23/23 20/1/1 18/6/6
f 1/17/17 5/21/21 17/24/24 14/18/18
f 14/18/18 17/24/24 18/6/6 13/5/5
f 6/22/22 2/12/12 15/11/11 19/23/23
f 19/23/23 15/11/11 16/2/2 20/1/1
o Plane.001
v 5.000000 0.000000 2.999999
v -5.000000 0.000000 3.000000
v 5.000000 6.000000 3.000000
v -5.000000 6.000000 3.000001
v 5.000000 3.000000 2.999999
v -5.000000 3.000000 3.000001
v 0.673239 0.000000 3.000000
v -0.673239 0.000000 3.000000
v -0.673239 6.000000 3.000000
v 0.673239 6.000000 3.000000
v -0.673239 3.000000 3.000000
v 0.673239 3.000000 3.000000
v -5.000000 -0.000000 -3.000000
v -5.000000 0.000000 3.000000
v -5.000000 6.000000 -3.000000
v -5.000000 6.000000 3.000000
v 5.000000 0.000000 3.000000
v 5.000000 -0.000000 -3.000000
v 5.000000 6.000000 3.000000
v 5.000000 6.000000 -3.000000
v -5.000000 -0.000000 -1.000000
v -5.000000 -0.000000 1.000000
v -5.000000 6.000000 -1.000000
v -5.000000 6.000000 1.000000
v -5.000000 2.299341 3.000000
v -5.000000 2.299340 -3.000000
v 5.000000 2.299340 -3.000000
v 5.000000 2.299341 3.000000
v -5.000000 2.299341 1.000000
v -5.000000 2.299340 -1.000000
v -5.000000 4.149670 -3.000000
v 5.000000 4.149671 3.000000
v -5.000000 4.149670 1.000000
v -5.000000 4.149671 -1.000000
v -5.000000 4.149671 3.000000
v 5.000000 4.149670 -3.000000
v 5.000000 0.000000 1.000000
v 5.000000 -0.000000 -1.000000
v 5.000000 6.000000 1.000000
v 5.000000 6.000000 -1.000000
v 5.000000 2.299341 1.000000
v 5.000000 2.299340 -1.000000
v 5.000000 4.149670 1.000000
v 5.000000 4.149671 -1.000000
v 5.000000 0.000000 3.022999
v -5.000000 0.000000 3.023000
v 5.000000 6.000000 3.023000
v -5.000000 6.000000 3.023001
v 5.000000 3.000000 3.022999
v -5.000000 3.000000 3.023001
v 0.673239 0.000000 3.023000
v -0.673239 0.000000 3.023000
v -0.673239 6.000000 3.023000
v 0.673239 6.000000 3.023000
v -0.673239 3.000000 3.023000
v 0.673239 3.000000 3.023000
v -5.081314 -0.000000 -3.016263
v -5.115001 0.000000 3.000000
v -5.066395 6.039837 -3.013279
v -5.081315 6.048789 3.000000
v 5.114999 0.000000 3.000000
v 5.081314 -0.000000 -3.016263
v 5.081314 6.048789 3.000000
v 5.066395 6.039837 -3.013278
v -5.114999 -0.000000 -1.000000
v -5.115000 -0.000000 1.000000
v -5.081315 6.048789 -1.000000
v -5.081315 6.048789 1.000000
v -5.114997 2.299341 3.000000
v -5.081314 2.299340 -3.016263
v 5.081314 2.299340 -3.016263
v 5.114996 2.299341 3.000000
v -5.115000 2.299341 1.000000
v -5.114999 2.299340 -1.000000
v -5.081314 4.149670 -3.016263
v 5.114999 4.149671 3.000000
v -5.115000 4.149670 1.000000
v -5.114999 4.149671 -1.000000
v -5.115001 4.149671 3.000000
v 5.081314 4.149670 -3.016263
v 5.114999 0.000000 1.000000
v 5.115000 -0.000000 -1.000000
v 5.081314 6.048789 1.000000
v 5.081315 6.048789 -1.000000
v 5.114999 2.299341 1.000000
v 5.115000 2.299340 -1.000000
v 5.114999 4.149670 1.000000
v 5.115000 4.149671 -1.000000
vt 0.558536 0.369205
vt 0.999691 0.369205
vt 0.999691 0.833486
vt 0.558536 0.833486
vt 0.558536 -0.132449
vt 0.999691 -0.132449
vt -0.001302 -0.132449
vt 0.439852 -0.132449
vt 0.439852 0.369205
vt -0.001302 0.369205
vt 0.439852 0.833486
vt -0.001303 0.833486
vt 0.421250 0.369205
vt 0.421250 0.833486
vt 0.332408 0.644813
vt 0.500520 0.644813
vt 0.500520 0.917264
vt 0.332408 0.917264
vt 0.839018 0.644813
vt 1.001759 0.644813
vt 1.001759 0.917294
vt 0.839018 0.917294
vt -0.001430 0.980648
vt 1.500422 0.980648
vt 1.500422 1.249846
vt -0.001430 1.249846
vt -0.001895 0.644813
vt 0.166218 0.644813
vt 0.166218 0.917264
vt -0.001895 0.917264
vt 0.334330 0.644813
vt 0.334330 0.917264
vt 0.166218 -0.046639
vt 0.334330 -0.046639
vt 0.334330 0.336496
vt 0.166218 0.336496
vt -0.001895 -0.046639
vt -0.001895 0.336496
vt -0.001430 0.039793
vt 1.500422 0.039793
vt 1.500422 0.667030
vt -0.001430 0.667030
vt 0.839018 -0.046639
vt 1.001759 -0.046639
vt 1.001759 0.336495
vt 0.839018 0.336496
vt 0.332408 -0.046639
vt 0.500520 -0.046639
vt 0.500520 0.336495
vt 0.332408 0.336496
vt 0.498825 0.336496
vt 0.671821 0.336496
vt 0.671821 0.644813
vt 0.498825 0.644813
vt 0.498825 -0.046639
vt 0.671820 -0.046639
vt 0.670905 -0.046639
vt 0.670905 0.336496
vt 0.671821 0.917294
vt 0.498826 0.917294
vt 0.670905 0.644813
vt 0.670905 0.917294
vt 1.000462 0.999942
vt 0.000290 0.999942
vt 0.000289 0.666647
vt 1.000462 0.666648
vt 0.000289 0.333353
vt 1.000462 0.333353
vt 0.000289 0.000058
vt 1.000462 0.000058
vt 0.558536 0.369205
vt 0.558536 0.833486
vt 0.999691 0.833486
vt 0.999691 0.369205
vt 0.558536 -0.132449
vt 0.999691 -0.132449
vt -0.001302 -0.132449
vt -0.001302 0.369205
vt 0.439852 0.369205
vt 0.439852 -0.132449
vt -0.001303 0.833486
vt 0.439852 0.833486
vt 0.421250 0.369205
vt 0.421250 0.833486
vt 0.332408 0.644813
vt 0.332408 0.917264
vt 0.500520 0.917264
vt 0.500520 0.644813
vt 0.839018 0.644813
vt 0.839018 0.917294
vt 1.001759 0.917294
vt 1.001759 0.644813
vt -0.001430 0.980648
vt -0.001430 1.249846
vt 1.500422 1.249846
vt 1.500422 0.980648
vt -0.001895 0.644813
vt -0.001895 0.917264
vt 0.166218 0.917264
vt 0.166218 0.644813
vt 0.334330 0.917264
vt 0.334330 0.644813
vt 0.166218 -0.046639
vt 0.166218 0.336496
vt 0.334330 0.336496
vt 0.334330 -0.046639
vt -0.001895 -0.046639
vt -0.001895 0.336496
vt -0.001430 0.039793
vt -0.001430 0.667030
vt 1.500422 0.667030
vt 1.500422 0.039793
vt 0.839018 -0.046639
vt 0.839018 0.336496
vt 1.001759 0.336495
vt 1.001759 -0.046639
vt 0.332408 -0.046639
vt 0.332408 0.336496
vt 0.500520 0.336495
vt 0.500520 -0.046639
vt 0.498825 0.336496
vt 0.498825 0.644813
vt 0.671821 0.644813
vt 0.671821 0.336496
vt 0.498825 -0.046639
vt 0.671820 -0.046639
vt 0.670905 -0.046639
vt 0.670905 0.336496
vt 0.498826 0.917294
vt 0.671821 0.917294
vt 0.670905 0.644813
vt 0.670905 0.917294
vt 1.000462 0.999942
vt 1.000462 0.666648
vt 0.000289 0.666647
vt 0.000290 0.999942
vt 1.000462 0.333353
vt 0.000289 0.333353
vt 1.000462 0.000058
vt 0.000289 0.000058
vt 0.022412 0.000015
vt 0.017468 0.999985
vt 0.000015 0.999985
vt 0.004958 0.000015
vt 0.999981 0.037307
vt 0.000019 0.037309
vt 0.000019 0.000019
vt 0.999981 0.000020
vt 0.000019 0.000020
vt 0.999981 0.000019
vt 0.999981 0.037309
vt 0.000019 0.037308
vt 0.000013 0.999987
vt 0.000019 0.000099
vt 0.017470 0.000013
vt 0.017465 0.999901
vt 0.000013 0.999987
vt 0.000015 0.000099
vt 0.017467 0.000013
vt 0.017465 0.999900
vt 0.022412 0.000015
vt 0.017468 0.999985
vt 0.000015 0.999985
vt 0.004958 0.000015
vt 0.999981 0.037307
vt 0.000019 0.037309
vt 0.000019 0.000019
vt 0.999981 0.000019
vt 0.000019 0.000021
vt 0.999981 0.000019
vt 0.999981 0.037309
vt 0.000019 0.037308
vn -0.0000 0.0000 -1.0000
vn 1.0000 0.0000 0.0000
vn -1.0000 0.0000 0.0000
vn -0.0000 0.0000 1.0000
vn 0.0000 -1.0000 0.0000
vn -0.9998 0.0128 -0.0121
vn 0.9998 0.0177 -0.0000
vn 0.0000 0.0016 -1.0000
vn -0.9998 0.0177 -0.0000
vn -0.9999 -0.0000 -0.0167
vn 0.9999 -0.0000 -0.0167
vn 0.9998 0.0128 -0.0121
vn 0.0000 1.0000 -0.0044
vn 0.0000 1.0000 0.0000
usemtl wall
s off
f 35/25/25 30/26/25 28/27/25 33/28/25
f 32/29/25 26/30/25 30/26/25 35/25/25
f 25/31/25 31/32/25 36/33/25 29/34/25
f 29/34/25 36/33/25 34/35/25 27/36/25
f 36/37/25 35/25/25 33/28/25 34/38/25
f 58/39/26 55/40/26 39/41/26 47/42/26
f 67/43/27 56/44/27 43/45/27 63/46/27
f 55/47/28 60/48/28 44/49/28 39/50/28
f 59/51/26 57/52/26 48/53/26 40/54/26
f 57/52/26 58/55/26 47/56/26 48/53/26
f 46/57/26 45/58/26 54/59/26 53/60/26
f 38/61/26 46/57/26 53/60/26 49/62/26
f 37/63/28 42/64/28 51/65/28 50/66/28
f 61/67/27 41/68/27 52/69/27 65/70/27
f 45/71/26 37/72/26 50/73/26 54/74/26
f 49/62/26 53/60/26 57/52/26 59/51/26
f 50/66/28 51/65/28 60/48/28 55/47/28
f 65/70/27 52/69/27 56/44/27 67/43/27
f 54/74/26 50/73/26 55/40/26 58/39/26
f 51/75/27 66/76/27 68/77/27 60/78/27
f 42/79/27 62/80/27 66/76/27 51/75/27
f 62/81/27 61/67/27 65/70/27 66/82/27
f 60/78/27 68/77/27 64/83/27 44/84/27
f 68/85/27 67/43/27 63/46/27 64/86/27
f 39/87/29 44/88/29 64/89/29 47/90/29
f 47/90/29 64/89/29 63/91/29 48/92/29
f 48/92/29 63/91/29 43/93/29 40/94/29
f 79/95/28 77/96/28 72/97/28 74/98/28
f 76/99/28 79/95/28 74/98/28 70/100/28
f 69/101/28 73/102/28 80/103/28 75/104/28
f 73/102/28 71/105/28 78/106/28 80/103/28
f 80/107/28 78/108/28 77/96/28 79/95/28
f 102/109/30 91/110/30 83/111/30 99/112/30
f 111/113/31 107/114/31 87/115/31 100/116/31
f 99/117/32 83/118/32 88/119/32 104/120/32
f 103/121/33 84/122/33 92/123/33 101/124/33
f 101/124/33 92/123/33 91/125/33 102/126/33
f 90/127/27 97/128/27 98/129/27 89/130/27
f 82/131/27 93/132/27 97/128/27 90/127/27
f 81/133/25 94/134/25 95/135/25 86/136/25
f 105/137/26 109/138/26 96/139/26 85/140/26
f 89/141/34 98/142/34 94/143/34 81/144/34
f 93/132/27 103/121/27 101/124/27 97/128/27
f 94/134/25 99/117/25 104/120/25 95/135/25
f 109/138/26 111/113/26 100/116/26 96/139/26
f 98/142/34 102/109/34 99/112/34 94/143/34
f 95/145/35 104/146/35 112/147/35 110/148/35
f 86/149/35 95/145/35 110/148/35 106/150/35
f 106/151/26 110/152/26 109/138/26 105/137/26
f 104/146/36 88/153/36 108/154/36 112/147/36
f 112/155/31 108/156/31 107/114/31 111/113/31
f 83/157/37 91/158/37 108/159/37 88/160/37
f 91/158/38 92/161/38 107/162/38 108/159/38
f 92/161/38 84/163/38 87/164/38 107/162/38
f 25/31/26 29/34/26 73/102/26 69/101/26
f 26/30/29 32/29/29 76/99/29 70/100/29
f 28/27/27 30/26/27 74/98/27 72/97/27
f 27/36/38 34/35/38 78/106/38 71/105/38
f 29/34/26 27/36/26 71/105/26 73/102/26
f 30/26/27 26/30/27 70/100/27 74/98/27
f 31/32/29 25/31/29 69/101/29 75/104/29
f 33/28/38 28/27/38 72/97/38 77/96/38
f 34/38/38 33/28/38 77/96/38 78/108/38
f 35/25/29 36/37/29 80/107/29 79/95/29
f 36/33/27 31/32/27 75/104/27 80/103/27
f 32/29/26 35/25/26 79/95/26 76/99/26
f 46/57/29 38/61/29 82/131/29 90/127/29
f 38/61/28 49/62/28 93/132/28 82/131/28
f 62/80/29 42/79/29 86/149/29 106/150/29
f 43/45/28 56/44/28 100/116/28 87/115/28
f 42/64/29 37/63/29 81/133/29 86/136/29
f 37/72/29 45/71/29 89/141/29 81/144/29
f 45/58/29 46/57/29 90/127/29 89/130/29
f 49/62/28 59/51/28 103/121/28 93/132/28
f 52/69/28 41/68/28 85/140/28 96/139/28
f 53/165/38 54/166/38 98/167/38 97/168/38
f 56/44/28 52/69/28 96/139/28 100/116/28
f 57/169/25 53/170/25 97/171/25 101/172/25
f 54/173/28 58/174/28 102/175/28 98/176/28
f 59/51/28 40/54/28 84/122/28 103/121/28
f 58/177/29 57/178/29 101/179/29 102/180/29
f 41/68/29 61/67/29 105/137/29 85/140/29
f 61/67/29 62/81/29 106/151/29 105/137/29
f 66/181/38 65/182/38 109/183/38 110/184/38
f 67/185/29 68/186/29 112/187/29 111/188/29
f 68/189/28 66/190/28 110/191/28 112/192/28
f 65/193/25 67/194/25 111/195/25 109/196/25
f 40/94/28 43/93/28 87/164/28 84/163/28
o Plane
v -5.000000 0.000000 3.000000
v 5.000000 0.000000 3.000000
v -5.000000 0.000000 -3.000000
v 5.000000 0.000000 -3.000000
vt -0.741901 -0.267007
vt 1.741901 -0.267007
vt 1.741901 1.267007
vt -0.741901 1.267007
vn 0.0000 1.0000 0.0000
usemtl floor
s off
f 113/197/39 114/198/39 116/199/39 115/200/39
