# Blender v2.79 (sub 0) OBJ File: 'untitled.blend'
# www.blender.org
mtllib wooden_hut_hill.mtl
o Plane.002_Plane.006
v 17.780001 -0.364429 -19.830105
v -17.780001 -0.364429 -19.830105
v 17.780001 0.026286 17.780001
v -17.780001 0.026286 17.780001
v 10.195530 -0.935267 -19.830105
v -10.195530 -0.935267 -19.830105
v -10.195530 -0.544552 17.780001
v 10.195530 -0.544552 17.780001
v 24.611715 -1.235821 -18.173006
v 24.549164 -0.845106 15.846151
v -25.247112 -1.407862 -17.302324
v -24.910507 -1.017147 15.383293
v 17.780001 0.539504 9.455509
v 17.780001 0.539504 -11.704959
v -17.780001 0.539504 -11.704959
v -17.780001 0.539504 9.455509
v 10.195530 -0.031334 -11.704959
v 10.195530 -0.031334 9.455509
v -10.195530 -0.031334 -11.704959
v -10.195530 -0.031334 9.455509
v 28.991262 -0.331888 9.455509
v 28.991262 -0.331888 -11.704959
v -29.065659 -0.503929 -11.704959
v -29.065659 -0.503929 9.455509
vt 2.790483 2.891269
vt 2.789623 4.775356
vt 4.507326 4.769332
vt 4.508308 2.887126
vt -3.528856 2.890313
vt -3.526776 4.769786
vt -1.812468 4.775308
vt -1.814300 2.893656
vt -6.064025 2.894421
vt -5.070531 4.347474
vt 4.506883 -1.879330
vt 7.060337 -1.888192
vt 6.215328 -3.179752
vt 4.504194 -3.720054
vt 6.141247 4.242758
vt 7.067201 2.888105
vt -3.529144 -3.719518
vt -5.091592 -3.367966
vt -6.067201 -1.881139
vt -3.530683 -1.876410
vt -1.812313 -3.730823
vt -1.813984 -1.883820
vt 2.792853 -1.886389
vt 2.790516 -3.730781
vn -0.0375 -0.9988 -0.0308
vn -0.0374 -0.9974 -0.0615
vn 0.0143 -0.9965 -0.0824
vn 0.0170 -0.9989 -0.0424
vn -0.0086 -0.9991 -0.0407
vn -0.0074 -0.9968 -0.0797
vn 0.0374 -0.9974 -0.0615
vn 0.0375 -0.9988 -0.0308
vn -0.0888 -0.9953 -0.0388
vn -0.1068 -0.9891 -0.1012
vn 0.0184 -0.9974 0.0691
vn 0.1075 -0.9921 0.0643
vn 0.1310 -0.9775 0.1652
vn 0.0169 -0.9906 0.1355
vn 0.1258 -0.9862 -0.1077
vn 0.1051 -0.9936 -0.0412
vn -0.0101 -0.9913 0.1312
vn -0.1090 -0.9820 0.1544
vn -0.0900 -0.9941 0.0599
vn -0.0092 -0.9977 0.0663
vn 0.0372 -0.9932 0.1105
vn 0.0375 -0.9977 0.0554
vn -0.0375 -0.9977 0.0554
vn -0.0372 -0.9932 0.1105
usemtl ground
s 1
f 20/1/1 7/2/2 4/3/3 16/4/4
f 13/5/5 3/6/6 8/7/7 18/8/8
f 18/8/8 8/7/7 7/2/2 20/1/1
f 13/5/5 21/9/9 10/10/10 3/6/6
f 15/11/11 23/12/12 11/13/13 2/14/14
f 4/3/3 12/15/15 24/16/16 16/4/4
f 16/4/4 24/16/16 23/12/12 15/11/11
f 1/17/17 9/18/18 22/19/19 14/20/20
f 14/20/20 22/19/19 21/9/9 13/5/5
f 5/21/21 17/22/22 19/23/23 6/24/24
f 17/22/22 18/8/8 20/1/1 19/23/23
f 1/17/17 14/20/20 17/22/22 5/21/21
f 14/20/20 13/5/5 18/8/8 17/22/22
f 6/24/24 19/23/23 15/11/11 2/14/14
f 19/23/23 20/1/1 16/4/4 15/11/11
o Plane.001
v 5.000000 0.000000 2.999999
v -5.000000 0.000000 3.000000
v 5.000000 6.000000 3.000000
v -5.000000 6.000000 3.000001
v 5.000000 3.000000 2.999999
v -5.000000 3.000000 3.000001
v 0.673239 0.000000 3.000000
v -0.673239 0.000000 3.000000
v -0.673239 6.000000 3.000000
v 0.673239 6.000000 3.000000
v -0.673239 3.000000 3.000000
v 0.673239 3.000000 3.000000
v -5.000000 -0.000000 -3.000000
v -5.000000 0.000000 3.000000
v -5.000000 6.000000 -3.000000
v -5.000000 6.000000 3.000000
v 5.000000 0.000000 3.000000
v 5.000000 -0.000000 -3.000000
v 5.000000 6.000000 3.000000
v 5.000000 6.000000 -3.000000
v -5.000000 -0.000000 -1.000000
v -5.000000 -0.000000 1.000000
v -5.000000 6.000000 -1.000000
v -5.000000 6.000000 1.000000
v -5.000000 2.299341 3.000000
v -5.000000 2.299340 -3.000000
v 5.000000 2.299340 -3.000000
v 5.000000 2.299341 3.000000
v -5.000000 2.299341 1.000000
v -5.000000 2.299340 -1.000000
v -5.000000 4.149670 -3.000000
v 5.000000 4.149671 3.000000
v -5.000000 4.149670 1.000000
v -5.000000 4.149671 -1.000000
v -5.000000 4.149671 3.000000
v 5.000000 4.149670 -3.000000
v 5.000000 0.000000 1.000000
v 5.000000 -0.000000 -1.000000
v 5.000000 6.000000 1.000000
v 5.000000 6.000000 -1.000000
v 5.000000 2.299341 1.000000
v 5.000000 2.299340 -1.000000
v 5.000000 4.149670 1.000000
v 5.000000 4.149671 -1.000000
vt 0.558536 0.369205
vt 0.999691 0.369205
vt 0.999691 0.833486
vt 0.558536 0.833486
vt 0.558536 -0.132449
vt 0.999691 -0.132449
vt -0.001302 -0.132449
vt 0.439852 -0.132449
vt 0.439852 0.369205
vt -0.001302 0.369205
vt 0.439852 0.833486
vt -0.001303 0.833486
vt 0.421250 0.369205
vt 0.421250 0.833486
vt 0.332408 0.644813
vt 0.500520 0.644813
vt 0.500520 0.917264
vt 0.332408 0.917264
vt 0.839018 0.644813
vt 1.001759 0.644813
vt 1.001759 0.917294
vt 0.839018 0.917294
vt -0.001430 0.980648
vt 1.500422 0.980648
vt 1.500422 1.249846
vt -0.001430 1.249846
vt -0.001895 0.644813
vt 0.166218 0.644813
vt 0.166218 0.917264
vt -0.001895 0.917264
vt 0.334330 0.644813
vt 0.334330 0.917264
vt 0.166218 -0.046639
vt 0.334330 -0.046639
vt 0.334330 0.336496
vt 0.166218 0.336496
vt -0.001895 -0.046639
vt -0.001895 0.336496
vt -0.001430 0.039793
vt 1.500422 0.039793
vt 1.500422 0.667030
vt -0.001430 0.667030
vt 0.839018 -0.046639
vt 1.001759 -0.046639
vt 1.001759 0.336495
vt 0.839018 0.336496
vt 0.332408 -0.046639
vt 0.500520 -0.046639
vt 0.500520 0.336495
vt 0.332408 0.336496
vt 0.498825 0.336496
vt 0.671821 0.336496
vt 0.671821 0.644813
vt 0.498825 0.644813
vt 0.498825 -0.046639
vt 0.671820 -0.046639
vt 0.670905 -0.046639
vt 0.670905 0.336496
vt 0.671821 0.917294
vt 0.498826 0.917294
vt 0.670905 0.644813
vt 0.670905 0.917294
vt 1.000462 0.999942
vt 0.000290 0.999942
vt 0.000289 0.666647
vt 1.000462 0.666648
vt 0.000289 0.333353
vt 1.000462 0.333353
vt 0.000289 0.000058
vt 1.000462 0.000058
vn -0.0000 0.0000 -1.0000
vn 1.0000 0.0000 0.0000
vn -1.0000 0.0000 0.0000
vn -0.0000 0.0000 1.0000
vn 0.0000 -1.0000 0.0000
usemtl wall
s off
f 35/25/25 30/26/25 28/27/25 33/28/25
f 32/29/25 26/30/25 30/26/25 35/25/25
f 25/31/25 31/32/25 36/33/25 29/34/25
f 29/34/25 36/33/25 34/35/25 27/36/25
f 36/37/25 35/25/25 33/28/25 34/38/25
f 58/39/26 55/40/26 39/41/26 47/42/26
f 67/43/27 56/44/27 43/45/27 63/46/27
f 55/47/28 60/48/28 44/49/28 39/50/28
f 59/51/26 57/52/26 48/53/26 40/54/26
f 57/52/26 58/55/26 47/56/26 48/53/26
f 46/57/26 45/58/26 54/59/26 53/60/26
f 38/61/26 46/57/26 53/60/26 49/62/26
f 37/63/28 42/64/28 51/65/28 50/66/28
f 61/67/27 41/68/27 52/69/27 65/70/27
f 45/71/26 37/72/26 50/73/26 54/74/26
f 49/62/26 53/60/26 57/52/26 59/51/26
f 50/66/28 51/65/28 60/48/28 55/47/28
f 65/70/27 52/69/27 56/44/27 67/43/27
f 54/74/26 50/73/26 55/40/26 58/39/26
f 51/75/27 66/76/27 68/77/27 60/78/27
f 42/79/27 62/80/27 66/76/27 51/75/27
f 62/81/27 61/67/27 65/70/27 66/82/27
f 60/78/27 68/77/27 64/83/27 44/84/27
f 68/85/27 67/43/27 63/46/27 64/86/27
f 39/87/29 44/88/29 64/89/29 47/90/29
f 47/90/29 64/89/29 63/91/29 48/92/29
f 48/92/29 63/91/29 43/93/29 40/94/29
o Plane
v -5.000000 0.000000 3.000000
v 5.000000 0.000000 3.000000
v -5.000000 0.000000 -3.000000
v 5.000000 0.000000 -3.000000
vt -0.741901 -0.267007
vt 1.741901 -0.267007
vt 1.741901 1.267007
vt -0.741901 1.267007
vn 0.0000 1.0000 0.0000
usemtl floor
s off
f 69/95/30 70/96/30 72/97/30 71/98/30
