# Blender v2.79 (sub 0) OBJ File: ''
# www.blender.org
mtllib cornell.mtl
o cornell
v -1.020000 1.990000 -1.040000
v 1.000000 1.990000 0.990000
v -1.020000 1.990000 0.990000
v 1.000000 1.990000 -1.040000
v 0.040000 1.200000 -0.090000
v -0.710000 1.200000 -0.490000
v -0.530000 1.200000 0.090000
v -0.530000 1.200000 0.090000
v -0.710000 0.000000 -0.490000
v -0.530000 -0.000000 0.090000
v -0.710000 1.200000 -0.490000
v -0.140000 0.000000 -0.670000
v -0.710000 0.000000 -0.490000
v -0.140000 1.200000 -0.670000
v 0.040000 0.000000 -0.090000
v -0.140000 0.000000 -0.670000
v 0.040000 1.200000 -0.090000
v -0.530000 -0.000000 0.090000
v 0.040000 0.000000 -0.090000
v -0.140000 1.200000 -0.670000
v -0.710000 1.200000 -0.490000
v -0.140000 1.200000 -0.670000
v 0.040000 1.200000 -0.090000
v -0.530000 1.200000 0.090000
v -1.010000 -0.000000 0.990000
v -1.020000 1.990000 -1.040000
v -1.020000 1.990000 0.990000
v -0.990000 0.000000 -1.040000
v 0.530000 0.600000 0.750000
v 0.130000 0.600000 0.000000
v -0.050000 0.600000 0.570000
v -0.050000 0.600000 0.570000
v 0.130000 0.000000 0.000000
v -0.050000 -0.000000 0.570000
v 0.530000 0.600000 0.750000
v -0.050000 -0.000000 0.570000
v 0.530000 -0.000000 0.750000
v 0.130000 0.600000 0.000000
v 0.700000 -0.000000 0.170000
v 0.130000 0.000000 0.000000
v 0.700000 0.600000 0.170000
v 0.530000 -0.000000 0.750000
v 0.700000 -0.000000 0.170000
v 0.700000 0.600000 0.170000
v 0.130000 0.600000 0.000000
v -0.050000 0.600000 0.570000
v 0.700000 0.600000 0.170000
v 0.530000 0.600000 0.750000
v 1.000000 -0.000000 0.990000
v 1.000000 1.990000 -1.040000
v 1.000000 0.000000 -1.040000
v 1.000000 1.990000 0.990000
v 1.000000 -0.000000 0.990000
v -0.990000 0.000000 -1.040000
v -1.010000 -0.000000 0.990000
v 1.000000 0.000000 -1.040000
v -0.990000 0.000000 -1.040000
v 1.000000 1.990000 -1.040000
v -1.020000 1.990000 -1.040000
v 1.000000 0.000000 -1.040000
v -0.240000 1.980000 -0.220000
v 0.230000 1.980000 0.160000
v -0.240000 1.980000 0.160000
v 0.230000 1.980000 -0.220000
vn 0.9999 0.0100 0.0049
vn 0.9999 0.0101 0.0050
vn 1.0000 0.0050 0.0000
vn 0.9998 0.0151 0.0099
vn 0.0000 -0.0000 1.0000
vn 0.0000 -1.0000 0.0000
vn 0.0000 1.0000 0.0000
vn -0.9551 0.0000 0.2964
vn -0.3011 0.0000 -0.9536
vn 0.9551 0.0000 -0.2964
vn 0.3011 -0.0000 0.9536
vn -0.9536 0.0000 -0.3011
vn -0.2964 -0.0000 0.9551
vn 0.2858 0.0000 -0.9583
vn 0.9596 -0.0000 0.2813
vn -1.0000 0.0000 0.0000
usemtl leftWall
s 1
f 25//1 26//2 27//3
f 25//1 28//4 26//2
usemtl backWall
f 57//5 58//5 59//5
f 57//5 60//5 58//5
usemtl light
f 61//6 62//6 63//6
f 61//6 64//6 62//6
usemtl ceiling
f 1//6 2//6 3//6
f 1//6 4//6 2//6
usemtl tallBox
f 5//7 6//7 7//7
f 8//8 9//8 10//8
f 11//9 12//9 13//9
f 14//10 15//10 16//10
f 17//11 18//11 19//11
f 5//7 20//7 6//7
f 8//8 21//8 9//8
f 11//9 22//9 12//9
f 14//10 23//10 15//10
f 17//11 24//11 18//11
usemtl shortBox
f 29//7 30//7 31//7
f 32//12 33//12 34//12
f 35//13 36//13 37//13
f 38//14 39//14 40//14
f 41//15 42//15 43//15
f 29//7 44//7 30//7
f 32//12 45//12 33//12
f 35//13 46//13 36//13
f 38//14 47//14 39//14
f 41//15 48//15 42//15
usemtl floor
f 53//7 54//7 55//7
f 53//7 56//7 54//7
usemtl rightWall
f 49//16 50//16 51//16
f 49//16 52//16 50//16
