# Blender v2.77 (sub 0) OBJ File: ''
# www.blender.org
mtllib crate_land.mtl
o Cube.008
v 0.168098 1.082812 1.878081
v -0.217574 1.082812 1.418454
v 0.242053 1.082812 1.032782
v 0.627725 1.082812 1.492409
v 0.168098 1.682811 1.878081
v -0.217574 1.682811 1.418454
v 0.242053 1.682811 1.032782
v 0.627725 1.682811 1.492409
vt 0.0000 0.0000
vt 1.0000 0.0000
vt 1.0000 1.0000
vt 0.0000 1.0000
vt 0.0000 0.0000
vt 1.0000 0.0000
vt 1.0000 1.0000
vt 0.0000 1.0000
vt 1.0000 0.0000
vt 1.0000 1.0000
vt 0.0000 1.0000
vt 0.0000 0.0000
vt 1.0000 0.0000
vt 0.0000 1.0000
vt 0.0000 0.0000
vt 1.0000 0.0000
vt 1.0000 1.0000
vt 1.0000 0.0000
vt 1.0000 1.0000
vt 0.0000 1.0000
vn 0.0000 -1.0000 -0.0000
vn 0.0000 1.0000 0.0000
vn -0.7660 0.0000 0.6428
vn -0.6428 -0.0000 -0.7660
vn 0.7660 -0.0000 -0.6428
vn 0.6428 0.0000 0.7660
usemtl Material.002
s off
f 1/1/1 2/2/1 3/3/1 4/4/1
f 5/5/2 8/6/2 7/7/2 6/8/2
f 1/1/3 5/9/3 6/10/3 2/11/3
f 2/12/4 6/13/4 7/7/4 3/14/4
f 3/15/5 7/16/5 8/17/5 4/4/5
f 5/5/6 1/18/6 4/19/6 8/20/6
o Cube.007
v 0.505076 0.481250 1.729015
v -0.094924 0.481250 1.729015
v -0.094924 0.481250 1.129015
v 0.505076 0.481250 1.129015
v 0.505075 1.081250 1.729015
v -0.094925 1.081250 1.729015
v -0.094924 1.081250 1.129015
v 0.505075 1.081250 1.129015
vt 0.0000 0.0000
vt 1.0000 0.0000
vt 1.0000 1.0000
vt 0.0000 1.0000
vt 0.0000 0.0000
vt 1.0000 0.0000
vt 1.0000 1.0000
vt 0.0000 1.0000
vt 1.0000 0.0000
vt 1.0000 1.0000
vt 0.0000 1.0000
vt 0.0000 0.0000
vt 1.0000 0.0000
vt 0.0000 1.0000
vt 0.0000 0.0000
vt 1.0000 0.0000
vt 1.0000 1.0000
vt 1.0000 0.0000
vt 1.0000 1.0000
vt 0.0000 1.0000
vn 0.0000 -1.0000 0.0000
vn 0.0000 1.0000 0.0000
vn -0.0000 -0.0000 1.0000
vn -1.0000 -0.0000 -0.0000
vn 0.0000 -0.0000 -1.0000
vn 1.0000 0.0000 0.0000
usemtl Material.002
s off
f 9/21/7 10/22/7 11/23/7 12/24/7
f 13/25/8 16/26/8 15/27/8 14/28/8
f 9/21/9 13/29/9 14/30/9 10/31/9
f 10/32/10 14/33/10 15/27/10 11/34/10
f 11/35/11 15/36/11 16/37/11 12/24/11
f 13/25/12 9/38/12 12/39/12 16/40/12
o Cube.006
v 1.102948 0.481250 -1.048155
v 0.502949 0.481250 -1.048154
v 0.502949 0.481250 -1.648154
v 1.102949 0.481250 -1.648154
v 1.102948 1.081250 -1.048154
v 0.502948 1.081250 -1.048155
v 0.502949 1.081250 -1.648155
v 1.102948 1.081250 -1.648154
vt 0.0000 0.0000
vt 1.0000 0.0000
vt 1.0000 1.0000
vt 0.0000 1.0000
vt 0.0000 0.0000
vt 1.0000 0.0000
vt 1.0000 1.0000
vt 0.0000 1.0000
vt 1.0000 0.0000
vt 1.0000 1.0000
vt 0.0000 1.0000
vt 0.0000 0.0000
vt 1.0000 0.0000
vt 0.0000 1.0000
vt 0.0000 0.0000
vt 1.0000 0.0000
vt 1.0000 1.0000
vt 1.0000 0.0000
vt 1.0000 1.0000
vt 0.0000 1.0000
vn 0.0000 -1.0000 0.0000
vn 0.0000 1.0000 -0.0000
vn -0.0000 -0.0000 1.0000
vn -1.0000 -0.0000 -0.0000
vn 0.0000 -0.0000 -1.0000
vn 1.0000 0.0000 0.0000
usemtl Material.002
s off
f 17/41/13 18/42/13 19/43/13 20/44/13
f 21/45/14 24/46/14 23/47/14 22/48/14
f 17/41/15 21/49/15 22/50/15 18/51/15
f 18/52/16 22/53/16 23/47/16 19/54/16
f 19/55/17 23/56/17 24/57/17 20/44/17
f 21/45/18 17/58/18 20/59/18 24/60/18
o Cube.005
v 1.075660 1.082812 -1.019632
v 0.477943 1.082812 -1.071926
v 0.530237 1.082812 -1.669643
v 1.127954 1.082812 -1.617349
v 1.075660 1.682811 -1.019632
v 0.477943 1.682811 -1.071926
v 0.530237 1.682811 -1.669643
v 1.127954 1.682811 -1.617349
vt 0.0000 0.0000
vt 1.0000 0.0000
vt 1.0000 1.0000
vt 0.0000 1.0000
vt 0.0000 0.0000
vt 1.0000 0.0000
vt 1.0000 1.0000
vt 0.0000 1.0000
vt 1.0000 0.0000
vt 1.0000 1.0000
vt 0.0000 1.0000
vt 0.0000 0.0000
vt 1.0000 0.0000
vt 0.0000 1.0000
vt 0.0000 0.0000
vt 1.0000 0.0000
vt 1.0000 1.0000
vt 1.0000 0.0000
vt 1.0000 1.0000
vt 0.0000 1.0000
vn 0.0000 -1.0000 0.0000
vn 0.0000 1.0000 -0.0000
vn -0.0872 -0.0000 0.9962
vn -0.9962 -0.0000 -0.0872
vn 0.0872 -0.0000 -0.9962
vn 0.9962 0.0000 0.0872
usemtl Material.002
s off
f 25/61/19 26/62/19 27/63/19 28/64/19
f 29/65/20 32/66/20 31/67/20 30/68/20
f 25/61/21 29/69/21 30/70/21 26/71/21
f 26/72/22 30/73/22 31/67/22 27/74/22
f 27/75/23 31/76/23 32/77/23 28/64/23
f 29/65/24 25/78/24 28/79/24 32/80/24
o Cube.004
v -2.948997 1.083715 -0.436201
v -2.695426 1.083715 -0.979985
v -2.151642 1.083715 -0.726414
v -2.405213 1.083715 -0.182630
v -2.948997 1.683715 -0.436201
v -2.695426 1.683715 -0.979985
v -2.151642 1.683715 -0.726414
v -2.405213 1.683715 -0.182630
vt 0.0000 0.0000
vt 1.0000 0.0000
vt 1.0000 1.0000
vt 0.0000 1.0000
vt 0.0000 0.0000
vt 1.0000 0.0000
vt 1.0000 1.0000
vt 0.0000 1.0000
vt 1.0000 0.0000
vt 1.0000 1.0000
vt 0.0000 1.0000
vt 0.0000 0.0000
vt 1.0000 0.0000
vt 0.0000 1.0000
vt 0.0000 0.0000
vt 1.0000 0.0000
vt 1.0000 1.0000
vt 1.0000 0.0000
vt 1.0000 1.0000
vt 0.0000 1.0000
vn 0.0000 -1.0000 0.0000
vn 0.0000 1.0000 0.0000
vn -0.9063 0.0000 -0.4226
vn 0.4226 -0.0000 -0.9063
vn 0.9063 0.0000 0.4226
vn -0.4226 0.0000 0.9063
usemtl Material.002
s off
f 33/81/25 34/82/25 35/83/25 36/84/25
f 37/85/26 40/86/26 39/87/26 38/88/26
f 33/81/27 37/89/27 38/90/27 34/91/27
f 34/92/28 38/93/28 39/87/28 35/94/28
f 35/95/29 39/96/29 40/97/29 36/84/29
f 37/85/30 33/98/30 36/99/30 40/100/30
o Cube.003
v -2.587297 1.082812 0.875867
v -2.972969 1.082812 0.416240
v -2.513343 1.082812 0.030567
v -2.127670 1.082812 0.490194
v -2.587297 1.682811 0.875867
v -2.972969 1.682811 0.416240
v -2.513342 1.682811 0.030567
v -2.127670 1.682811 0.490194
vt 0.0000 0.0000
vt 1.0000 0.0000
vt 1.0000 1.0000
vt 0.0000 1.0000
vt 0.0000 0.0000
vt 1.0000 0.0000
vt 1.0000 1.0000
vt 0.0000 1.0000
vt 1.0000 0.0000
vt 1.0000 1.0000
vt 0.0000 1.0000
vt 0.0000 0.0000
vt 1.0000 0.0000
vt 0.0000 1.0000
vt 0.0000 0.0000
vt 1.0000 0.0000
vt 1.0000 1.0000
vt 1.0000 0.0000
vt 1.0000 1.0000
vt 0.0000 1.0000
vn 0.0000 -1.0000 0.0000
vn 0.0000 1.0000 0.0000
vn -0.7660 -0.0000 0.6428
vn -0.6428 -0.0000 -0.7660
vn 0.7660 -0.0000 -0.6428
vn 0.6428 0.0000 0.7660
usemtl Material.002
s off
f 41/101/31 42/102/31 43/103/31 44/104/31
f 45/105/32 48/106/32 47/107/32 46/108/32
f 41/101/33 45/109/33 46/110/33 42/111/33
f 42/112/34 46/113/34 47/107/34 43/114/34
f 43/115/35 47/116/35 48/117/35 44/104/35
f 45/105/36 41/118/36 44/119/36 48/120/36
o Cube.002
v -2.250320 0.481250 -0.557596
v -2.850320 0.481250 -0.557596
v -2.850320 0.481250 -1.157596
v -2.250319 0.481250 -1.157596
v -2.250320 1.081250 -0.557596
v -2.850320 1.081250 -0.557597
v -2.850320 1.081250 -1.157596
v -2.250320 1.081250 -1.157596
vt 0.0000 0.0000
vt 1.0000 0.0000
vt 1.0000 1.0000
vt 0.0000 1.0000
vt 0.0000 0.0000
vt 1.0000 0.0000
vt 1.0000 1.0000
vt 0.0000 1.0000
vt 1.0000 0.0000
vt 1.0000 1.0000
vt 0.0000 1.0000
vt 0.0000 0.0000
vt 1.0000 0.0000
vt 0.0000 1.0000
vt 0.0000 0.0000
vt 1.0000 0.0000
vt 1.0000 1.0000
vt 1.0000 0.0000
vt 1.0000 1.0000
vt 0.0000 1.0000
vn 0.0000 -1.0000 0.0000
vn 0.0000 1.0000 -0.0000
vn -0.0000 0.0000 1.0000
vn -1.0000 -0.0000 -0.0000
vn 0.0000 -0.0000 -1.0000
vn 1.0000 0.0000 0.0000
usemtl Material.002
s off
f 49/121/37 50/122/37 51/123/37 52/124/37
f 53/125/38 56/126/38 55/127/38 54/128/38
f 49/121/39 53/129/39 54/130/39 50/131/39
f 50/132/40 54/133/40 55/127/40 51/134/40
f 51/135/41 55/136/41 56/137/41 52/124/41
f 53/125/42 49/138/42 52/139/42 56/140/42
o Cube.001
v -2.250319 0.481250 1.242404
v -2.850319 0.481250 1.242404
v -2.850319 0.481250 0.642404
v -2.250319 0.481250 0.642404
v -2.250319 1.081250 1.242404
v -2.850320 1.081250 1.242403
v -2.850319 1.081250 0.642403
v -2.250319 1.081250 0.642404
vt 0.0000 0.0000
vt 1.0000 0.0000
vt 1.0000 1.0000
vt 0.0000 1.0000
vt 0.0000 0.0000
vt 1.0000 0.0000
vt 1.0000 1.0000
vt 0.0000 1.0000
vt 1.0000 0.0000
vt 1.0000 1.0000
vt 0.0000 1.0000
vt 0.0000 0.0000
vt 1.0000 0.0000
vt 0.0000 1.0000
vt 0.0000 0.0000
vt 1.0000 0.0000
vt 1.0000 1.0000
vt 1.0000 0.0000
vt 1.0000 1.0000
vt 0.0000 1.0000
vn 0.0000 -1.0000 0.0000
vn 0.0000 1.0000 -0.0000
vn -0.0000 -0.0000 1.0000
vn -1.0000 -0.0000 -0.0000
vn 0.0000 -0.0000 -1.0000
vn 1.0000 -0.0000 0.0000
usemtl Material.002
s off
f 57/141/43 58/142/43 59/143/43 60/144/43
f 61/145/44 64/146/44 63/147/44 62/148/44
f 57/141/45 61/149/45 62/150/45 58/151/45
f 58/152/46 62/153/46 63/147/46 59/154/46
f 59/155/47 63/156/47 64/157/47 60/144/47
f 61/145/48 57/158/48 60/159/48 64/160/48
o Plane
v -2.850320 0.478113 -2.357596
v -2.850319 0.478113 2.442404
v 1.949680 0.478113 -2.357597
v 1.949681 0.478113 2.442403
vt -2.1495 -2.1495
vt 3.1495 -2.1495
vt 3.1495 3.1495
vt -2.1495 3.1495
vn 0.0000 1.0000 -0.0000
usemtl Material.001
s off
f 65/161/49 66/162/49 68/163/49 67/164/49
o Cube
v -2.250320 0.481250 0.342404
v -2.850320 0.481250 0.342404
v -2.850320 0.481250 -0.257596
v -2.250319 0.481250 -0.257596
v -2.250320 1.081250 0.342404
v -2.850320 1.081250 0.342403
v -2.850320 1.081250 -0.257597
v -2.250320 1.081250 -0.257596
vt 0.0000 0.0000
vt 1.0000 0.0000
vt 1.0000 1.0000
vt 0.0000 1.0000
vt 0.0000 0.0000
vt 1.0000 0.0000
vt 1.0000 1.0000
vt 0.0000 1.0000
vt 1.0000 0.0000
vt 1.0000 1.0000
vt 0.0000 1.0000
vt 0.0000 0.0000
vt 1.0000 0.0000
vt 0.0000 1.0000
vt 0.0000 0.0000
vt 1.0000 0.0000
vt 1.0000 1.0000
vt 1.0000 0.0000
vt 1.0000 1.0000
vt 0.0000 1.0000
vn 0.0000 -1.0000 0.0000
vn 0.0000 1.0000 -0.0000
vn -0.0000 0.0000 1.0000
vn -1.0000 -0.0000 -0.0000
vn 0.0000 -0.0000 -1.0000
vn 1.0000 0.0000 0.0000
usemtl Material.002
s off
f 69/165/50 70/166/50 71/167/50 72/168/50
f 73/169/51 76/170/51 75/171/51 74/172/51
f 69/165/52 73/173/52 74/174/52 70/175/52
f 70/176/53 74/177/53 75/171/53 71/178/53
f 71/179/54 75/180/54 76/181/54 72/168/54
f 73/169/55 69/182/55 72/183/55 76/184/55
