# Blender v2.77 (sub 0) OBJ File: ''
# www.blender.org
mtllib crate_land.mtl
o Plane
v -2.850320 0.478113 -2.357596
v -2.850319 0.478113 2.442404
v 1.949681 0.478113 2.442403
v 1.949680 0.478113 -2.357597
vt -2.1495 -2.1495
vt 3.1495 -2.1495
vt 3.1495 3.1495
vt -2.1495 3.1495
vn 0.0000 1.0000 0.0000
usemtl Material.001
s 1
f 1/1/1 2/2/1 3/3/1 4/4/1
o Cube.009
v -2.250320 0.481250 0.342404
v -2.850320 0.481250 0.342404
v -2.850320 0.481250 -0.257596
v -2.250319 0.481250 -0.257596
v -2.250320 1.081250 0.342404
v -2.250320 1.081250 -0.257596
v -2.850320 1.081250 -0.257597
v -2.850320 1.081250 0.342403
vt 0.0000 0.0000
vt 1.0000 0.0000
vt 1.0000 1.0000
vt 0.0000 1.0000
vt 0.0000 0.0000
vt 1.0000 0.0000
vt 1.0000 1.0000
vt 0.0000 1.0000
vt 1.0000 0.0000
vt 1.0000 1.0000
vt 0.0000 1.0000
vt 0.0000 0.0000
vt 1.0000 0.0000
vt 0.0000 1.0000
vt 0.0000 0.0000
vt 1.0000 0.0000
vt 1.0000 1.0000
vt 1.0000 0.0000
vt 1.0000 1.0000
vt 0.0000 1.0000
vn 0.0000 -1.0000 -0.0000
vn 0.0000 1.0000 0.0000
vn -0.0000 0.0000 1.0000
vn -1.0000 0.0000 0.0000
vn 0.0000 -0.0000 -1.0000
vn 1.0000 0.0000 0.0000
usemtl Material.002
s 1
f 5/5/2 6/6/2 7/7/2 8/8/2
f 9/9/3 10/10/3 11/11/3 12/12/3
f 5/5/4 9/13/4 12/14/4 6/15/4
f 6/16/5 12/17/5 11/11/5 7/18/5
f 7/19/6 11/20/6 10/21/6 8/8/6
f 9/9/7 5/22/7 8/23/7 10/24/7
o Cube.008
v 0.168098 1.082812 1.878081
v -0.217574 1.082812 1.418454
v 0.242053 1.082812 1.032782
v 0.627725 1.082812 1.492409
v 0.168098 1.682811 1.878081
v 0.627725 1.682811 1.492409
v 0.242053 1.682811 1.032782
v -0.217574 1.682811 1.418454
vt 0.0000 0.0000
vt 1.0000 0.0000
vt 1.0000 1.0000
vt 0.0000 1.0000
vt 0.0000 0.0000
vt 1.0000 0.0000
vt 1.0000 1.0000
vt 0.0000 1.0000
vt 1.0000 0.0000
vt 1.0000 1.0000
vt 0.0000 1.0000
vt 0.0000 0.0000
vt 1.0000 0.0000
vt 0.0000 1.0000
vt 0.0000 0.0000
vt 1.0000 0.0000
vt 1.0000 1.0000
vt 1.0000 0.0000
vt 1.0000 1.0000
vt 0.0000 1.0000
vn 0.0000 -1.0000 -0.0000
vn -0.0000 1.0000 0.0000
vn -0.7660 -0.0000 0.6428
vn -0.6428 0.0000 -0.7660
vn 0.7660 0.0000 -0.6428
vn 0.6428 -0.0000 0.7660
usemtl Material.002
s 1
f 13/25/8 14/26/8 15/27/8 16/28/8
f 17/29/9 18/30/9 19/31/9 20/32/9
f 13/25/10 17/33/10 20/34/10 14/35/10
f 14/36/11 20/37/11 19/31/11 15/38/11
f 15/39/12 19/40/12 18/41/12 16/28/12
f 17/29/13 13/42/13 16/43/13 18/44/13
o Cube.002
v -2.250320 0.481250 -0.557596
v -2.850320 0.481250 -0.557596
v -2.850320 0.481250 -1.157596
v -2.250319 0.481250 -1.157596
v -2.250320 1.081250 -0.557596
v -2.250320 1.081250 -1.157596
v -2.850320 1.081250 -1.157596
v -2.850320 1.081250 -0.557597
vt 0.0000 0.0000
vt 1.0000 0.0000
vt 1.0000 1.0000
vt 0.0000 1.0000
vt 0.0000 0.0000
vt 1.0000 0.0000
vt 1.0000 1.0000
vt 0.0000 1.0000
vt 1.0000 0.0000
vt 1.0000 1.0000
vt 0.0000 1.0000
vt 0.0000 0.0000
vt 1.0000 0.0000
vt 0.0000 1.0000
vt 0.0000 0.0000
vt 1.0000 0.0000
vt 1.0000 1.0000
vt 1.0000 0.0000
vt 1.0000 1.0000
vt 0.0000 1.0000
vn 0.0000 -1.0000 -0.0000
vn -0.0000 1.0000 0.0000
vn -0.0000 0.0000 1.0000
vn -1.0000 0.0000 0.0000
vn 0.0000 0.0000 -1.0000
vn 1.0000 0.0000 0.0000
usemtl Material.002
s 1
f 21/45/14 22/46/14 23/47/14 24/48/14
f 25/49/15 26/50/15 27/51/15 28/52/15
f 21/45/16 25/53/16 28/54/16 22/55/16
f 22/56/17 28/57/17 27/51/17 23/58/17
f 23/59/18 27/60/18 26/61/18 24/48/18
f 25/49/19 21/62/19 24/63/19 26/64/19
o Cube.003
v -2.587297 1.082812 0.875867
v -2.972969 1.082812 0.416240
v -2.513343 1.082812 0.030567
v -2.127670 1.082812 0.490194
v -2.587297 1.682811 0.875867
v -2.127670 1.682811 0.490194
v -2.513342 1.682811 0.030567
v -2.972969 1.682811 0.416240
vt 0.0000 0.0000
vt 1.0000 0.0000
vt 1.0000 1.0000
vt 0.0000 1.0000
vt 0.0000 0.0000
vt 1.0000 0.0000
vt 1.0000 1.0000
vt 0.0000 1.0000
vt 1.0000 0.0000
vt 1.0000 1.0000
vt 0.0000 1.0000
vt 0.0000 0.0000
vt 1.0000 0.0000
vt 0.0000 1.0000
vt 0.0000 0.0000
vt 1.0000 0.0000
vt 1.0000 1.0000
vt 1.0000 0.0000
vt 1.0000 1.0000
vt 0.0000 1.0000
vn 0.0000 -1.0000 0.0000
vn -0.0000 1.0000 0.0000
vn -0.7660 -0.0000 0.6428
vn -0.6428 0.0000 -0.7660
vn 0.7660 -0.0000 -0.6428
vn 0.6428 -0.0000 0.7660
usemtl Material.002
s 1
f 29/65/20 30/66/20 31/67/20 32/68/20
f 33/69/21 34/70/21 35/71/21 36/72/21
f 29/65/22 33/73/22 36/74/22 30/75/22
f 30/76/23 36/77/23 35/71/23 31/78/23
f 31/79/24 35/80/24 34/81/24 32/68/24
f 33/69/25 29/82/25 32/83/25 34/84/25
o Cube.007
v 0.505076 0.481250 1.729015
v -0.094924 0.481250 1.729015
v -0.094924 0.481250 1.129015
v 0.505076 0.481250 1.129015
v 0.505075 1.081250 1.729015
v 0.505075 1.081250 1.129015
v -0.094924 1.081250 1.129015
v -0.094925 1.081250 1.729015
vt 0.0000 0.0000
vt 1.0000 0.0000
vt 1.0000 1.0000
vt 0.0000 1.0000
vt 0.0000 0.0000
vt 1.0000 0.0000
vt 1.0000 1.0000
vt 0.0000 1.0000
vt 1.0000 0.0000
vt 1.0000 1.0000
vt 0.0000 1.0000
vt 0.0000 0.0000
vt 1.0000 0.0000
vt 0.0000 1.0000
vt 0.0000 0.0000
vt 1.0000 0.0000
vt 1.0000 1.0000
vt 1.0000 0.0000
vt 1.0000 1.0000
vt 0.0000 1.0000
vn 0.0000 -1.0000 -0.0000
vn 0.0000 1.0000 0.0000
vn 0.0000 0.0000 1.0000
vn -1.0000 -0.0000 -0.0000
vn 0.0000 0.0000 -1.0000
vn 1.0000 0.0000 0.0000
usemtl Material.002
s 1
f 37/85/26 38/86/26 39/87/26 40/88/26
f 41/89/27 42/90/27 43/91/27 44/92/27
f 37/85/28 41/93/28 44/94/28 38/95/28
f 38/96/29 44/97/29 43/91/29 39/98/29
f 39/99/30 43/100/30 42/101/30 40/88/30
f 41/89/31 37/102/31 40/103/31 42/104/31
o Cube.006
v 1.102948 0.481250 -1.048155
v 0.502949 0.481250 -1.048154
v 0.502949 0.481250 -1.648154
v 1.102949 0.481250 -1.648154
v 1.102948 1.081250 -1.048154
v 1.102948 1.081250 -1.648154
v 0.502949 1.081250 -1.648155
v 0.502948 1.081250 -1.048155
vt 0.0000 0.0000
vt 1.0000 0.0000
vt 1.0000 1.0000
vt 0.0000 1.0000
vt 0.0000 0.0000
vt 1.0000 0.0000
vt 1.0000 1.0000
vt 0.0000 1.0000
vt 1.0000 0.0000
vt 1.0000 1.0000
vt 0.0000 1.0000
vt 0.0000 0.0000
vt 1.0000 0.0000
vt 0.0000 1.0000
vt 0.0000 0.0000
vt 1.0000 0.0000
vt 1.0000 1.0000
vt 1.0000 0.0000
vt 1.0000 1.0000
vt 0.0000 1.0000
vn -0.0000 -1.0000 -0.0000
vn -0.0000 1.0000 0.0000
vn 0.0000 0.0000 1.0000
vn -1.0000 -0.0000 -0.0000
vn 0.0000 -0.0000 -1.0000
vn 1.0000 0.0000 0.0000
usemtl Material.002
s 1
f 45/105/32 46/106/32 47/107/32 48/108/32
f 49/109/33 50/110/33 51/111/33 52/112/33
f 45/105/34 49/113/34 52/114/34 46/115/34
f 46/116/35 52/117/35 51/111/35 47/118/35
f 47/119/36 51/120/36 50/121/36 48/108/36
f 49/109/37 45/122/37 48/123/37 50/124/37
o Cube.001
v -2.250319 0.481250 1.242404
v -2.850319 0.481250 1.242404
v -2.850319 0.481250 0.642404
v -2.250319 0.481250 0.642404
v -2.250319 1.081250 1.242404
v -2.250319 1.081250 0.642404
v -2.850319 1.081250 0.642403
v -2.850320 1.081250 1.242403
vt 0.0000 0.0000
vt 1.0000 0.0000
vt 1.0000 1.0000
vt 0.0000 1.0000
vt 0.0000 0.0000
vt 1.0000 0.0000
vt 1.0000 1.0000
vt 0.0000 1.0000
vt 1.0000 0.0000
vt 1.0000 1.0000
vt 0.0000 1.0000
vt 0.0000 0.0000
vt 1.0000 0.0000
vt 0.0000 1.0000
vt 0.0000 0.0000
vt 1.0000 0.0000
vt 1.0000 1.0000
vt 1.0000 0.0000
vt 1.0000 1.0000
vt 0.0000 1.0000
vn 0.0000 -1.0000 -0.0000
vn -0.0000 1.0000 0.0000
vn -0.0000 0.0000 1.0000
vn -1.0000 -0.0000 -0.0000
vn 0.0000 -0.0000 -1.0000
vn 1.0000 0.0000 0.0000
usemtl Material.002
s 1
f 53/125/38 54/126/38 55/127/38 56/128/38
f 57/129/39 58/130/39 59/131/39 60/132/39
f 53/125/40 57/133/40 60/134/40 54/135/40
f 54/136/41 60/137/41 59/131/41 55/138/41
f 55/139/42 59/140/42 58/141/42 56/128/42
f 57/129/43 53/142/43 56/143/43 58/144/43
o Cube.005
v 1.075660 1.082812 -1.019632
v 0.477943 1.082812 -1.071926
v 0.530237 1.082812 -1.669643
v 1.127954 1.082812 -1.617349
v 1.075660 1.682811 -1.019632
v 1.127954 1.682811 -1.617349
v 0.530237 1.682811 -1.669643
v 0.477943 1.682811 -1.071926
vt 0.0000 0.0000
vt 1.0000 0.0000
vt 1.0000 1.0000
vt 0.0000 1.0000
vt 0.0000 0.0000
vt 1.0000 0.0000
vt 1.0000 1.0000
vt 0.0000 1.0000
vt 1.0000 0.0000
vt 1.0000 1.0000
vt 0.0000 1.0000
vt 0.0000 0.0000
vt 1.0000 0.0000
vt 0.0000 1.0000
vt 0.0000 0.0000
vt 1.0000 0.0000
vt 1.0000 1.0000
vt 1.0000 0.0000
vt 1.0000 1.0000
vt 0.0000 1.0000
vn 0.0000 -1.0000 -0.0000
vn -0.0000 1.0000 -0.0000
vn -0.0872 -0.0000 0.9962
vn -0.9962 0.0000 -0.0872
vn 0.0872 0.0000 -0.9962
vn 0.9962 -0.0000 0.0872
usemtl Material.002
s 1
f 61/145/44 62/146/44 63/147/44 64/148/44
f 65/149/45 66/150/45 67/151/45 68/152/45
f 61/145/46 65/153/46 68/154/46 62/155/46
f 62/156/47 68/157/47 67/151/47 63/158/47
f 63/159/48 67/160/48 66/161/48 64/148/48
f 65/149/49 61/162/49 64/163/49 66/164/49
o Cube.004
v -2.948997 1.083715 -0.436201
v -2.695426 1.083715 -0.979985
v -2.151642 1.083715 -0.726414
v -2.405213 1.083715 -0.182630
v -2.948997 1.683715 -0.436201
v -2.405213 1.683715 -0.182630
v -2.151642 1.683715 -0.726414
v -2.695426 1.683715 -0.979985
vt 0.0000 0.0000
vt 1.0000 0.0000
vt 1.0000 1.0000
vt 0.0000 1.0000
vt 0.0000 0.0000
vt 1.0000 0.0000
vt 1.0000 1.0000
vt 0.0000 1.0000
vt 1.0000 0.0000
vt 1.0000 1.0000
vt 0.0000 1.0000
vt 0.0000 0.0000
vt 1.0000 0.0000
vt 0.0000 1.0000
vt 0.0000 0.0000
vt 1.0000 0.0000
vt 1.0000 1.0000
vt 1.0000 0.0000
vt 1.0000 1.0000
vt 0.0000 1.0000
vn -0.0000 -1.0000 -0.0000
vn 0.0000 1.0000 0.0000
vn -0.9063 0.0000 -0.4226
vn 0.4226 0.0000 -0.9063
vn 0.9063 0.0000 0.4226
vn -0.4226 -0.0000 0.9063
usemtl Material.002
s 1
f 69/165/50 70/166/50 71/167/50 72/168/50
f 73/169/51 74/170/51 75/171/51 76/172/51
f 69/165/52 73/173/52 76/174/52 70/175/52
f 70/176/53 76/177/53 75/171/53 71/178/53
f 71/179/54 75/180/54 74/181/54 72/168/54
f 73/169/55 69/182/55 72/183/55 74/184/55
